G04*
G04 #@! TF.GenerationSoftware,Altium Limited,Altium Designer,20.2.6 (244)*
G04*
G04 Layer_Physical_Order=1*
G04 Layer_Color=25308*
%FSLAX25Y25*%
%MOIN*%
G70*
G04*
G04 #@! TF.SameCoordinates,0B2D2C80-7AF4-4F1A-9CF9-E7062EFAC0B4*
G04*
G04*
G04 #@! TF.FilePolarity,Positive*
G04*
G01*
G75*
%ADD13C,0.02000*%
G04:AMPARAMS|DCode=15|XSize=23.62mil|YSize=61.02mil|CornerRadius=0mil|HoleSize=0mil|Usage=FLASHONLY|Rotation=135.000|XOffset=0mil|YOffset=0mil|HoleType=Round|Shape=Rectangle|*
%AMROTATEDRECTD15*
4,1,4,0.02993,0.01322,-0.01322,-0.02993,-0.02993,-0.01322,0.01322,0.02993,0.02993,0.01322,0.0*
%
%ADD15ROTATEDRECTD15*%

G04:AMPARAMS|DCode=16|XSize=47.24mil|YSize=70.87mil|CornerRadius=0mil|HoleSize=0mil|Usage=FLASHONLY|Rotation=135.000|XOffset=0mil|YOffset=0mil|HoleType=Round|Shape=Rectangle|*
%AMROTATEDRECTD16*
4,1,4,0.04176,0.00835,-0.00835,-0.04176,-0.04176,-0.00835,0.00835,0.04176,0.04176,0.00835,0.0*
%
%ADD16ROTATEDRECTD16*%

%ADD17R,0.03937X0.04134*%
%ADD18R,0.04134X0.08661*%
%ADD25C,0.07000*%
%ADD48C,0.10000*%
%ADD49C,0.12500*%
%ADD50C,0.01000*%
%ADD51C,0.11000*%
%ADD52P,0.09900X4X90.0*%
%ADD53C,0.03000*%
%ADD54C,0.28000*%
%ADD55C,0.06000*%
%ADD56C,0.08661*%
%ADD57R,0.08661X0.08661*%
%ADD58C,0.15748*%
%ADD59C,0.11811*%
%ADD60C,0.07500*%
%ADD61C,0.09450*%
%ADD62R,0.09450X0.09450*%
%ADD63R,0.07500X0.07500*%
%ADD64C,0.06300*%
%ADD65C,0.05906*%
%ADD66C,0.00500*%
%ADD67C,0.07874*%
%ADD68C,0.19000*%
%ADD69C,0.06200*%
%ADD70R,0.06200X0.06200*%
%ADD71C,0.05000*%
G36*
X9772Y248706D02*
X19528Y248131D01*
X29255Y247173D01*
X38936Y245834D01*
X48558Y244115D01*
X58104Y242021D01*
X67561Y239553D01*
X76914Y236716D01*
X86148Y233514D01*
X95249Y229952D01*
X104204Y226035D01*
X112997Y221770D01*
X121617Y217162D01*
X130049Y212220D01*
X138280Y206951D01*
X146299Y201363D01*
X154091Y195464D01*
X161646Y189263D01*
X168952Y182771D01*
X175997Y175997D01*
X182771Y168952D01*
X189263Y161646D01*
X195464Y154091D01*
X201363Y146299D01*
X206951Y138280D01*
X212220Y130049D01*
X217162Y121617D01*
X221770Y112997D01*
X226035Y104204D01*
X229952Y95249D01*
X233514Y86148D01*
X236716Y76914D01*
X239553Y67561D01*
X242021Y58104D01*
X244115Y48558D01*
X245834Y38936D01*
X247173Y29255D01*
X248131Y19528D01*
X248706Y9772D01*
X248896Y89D01*
X248879Y0D01*
X248896Y-89D01*
X248706Y-9772D01*
X248131Y-19528D01*
X247173Y-29255D01*
X245834Y-38936D01*
X244115Y-48558D01*
X242021Y-58104D01*
X239553Y-67561D01*
X236716Y-76914D01*
X233514Y-86148D01*
X229952Y-95249D01*
X226035Y-104204D01*
X221770Y-112997D01*
X217162Y-121617D01*
X212220Y-130049D01*
X206951Y-138280D01*
X201363Y-146299D01*
X195464Y-154091D01*
X189263Y-161646D01*
X182771Y-168952D01*
X175997Y-175997D01*
X168952Y-182771D01*
X161646Y-189263D01*
X154091Y-195464D01*
X146299Y-201363D01*
X138280Y-206951D01*
X130049Y-212220D01*
X121617Y-217162D01*
X112997Y-221770D01*
X104204Y-226035D01*
X95249Y-229952D01*
X86148Y-233514D01*
X76914Y-236716D01*
X67561Y-239553D01*
X58104Y-242021D01*
X48558Y-244115D01*
X38936Y-245834D01*
X29255Y-247173D01*
X19528Y-248131D01*
X9772Y-248706D01*
X89Y-248896D01*
X0Y-248879D01*
X-89Y-248896D01*
X-9772Y-248706D01*
X-19528Y-248131D01*
X-29255Y-247173D01*
X-38936Y-245834D01*
X-48558Y-244115D01*
X-58104Y-242021D01*
X-67561Y-239553D01*
X-76914Y-236716D01*
X-86148Y-233514D01*
X-95249Y-229952D01*
X-104204Y-226035D01*
X-112997Y-221770D01*
X-121617Y-217162D01*
X-130049Y-212220D01*
X-138280Y-206951D01*
X-146299Y-201363D01*
X-154091Y-195464D01*
X-161646Y-189263D01*
X-168952Y-182771D01*
X-175997Y-175997D01*
X-182771Y-168952D01*
X-189263Y-161646D01*
X-195464Y-154091D01*
X-201363Y-146299D01*
X-206951Y-138280D01*
X-212220Y-130049D01*
X-217162Y-121617D01*
X-221770Y-112997D01*
X-226035Y-104204D01*
X-229952Y-95249D01*
X-233514Y-86148D01*
X-236716Y-76914D01*
X-239553Y-67561D01*
X-242021Y-58104D01*
X-244115Y-48558D01*
X-245834Y-38936D01*
X-247173Y-29255D01*
X-248131Y-19528D01*
X-248706Y-9772D01*
X-248896Y-89D01*
X-248879Y0D01*
X-248896Y89D01*
X-248706Y9772D01*
X-248131Y19528D01*
X-247173Y29255D01*
X-245834Y38936D01*
X-244115Y48558D01*
X-242021Y58104D01*
X-239553Y67561D01*
X-236716Y76914D01*
X-233514Y86148D01*
X-229952Y95249D01*
X-226035Y104204D01*
X-221770Y112997D01*
X-217162Y121617D01*
X-212220Y130049D01*
X-206951Y138280D01*
X-201363Y146299D01*
X-195464Y154091D01*
X-189263Y161646D01*
X-182771Y168952D01*
X-175997Y175997D01*
X-168952Y182771D01*
X-161646Y189263D01*
X-154091Y195464D01*
X-146299Y201363D01*
X-138280Y206951D01*
X-130049Y212220D01*
X-121617Y217162D01*
X-112997Y221770D01*
X-104204Y226035D01*
X-95249Y229952D01*
X-86148Y233514D01*
X-76914Y236716D01*
X-67561Y239553D01*
X-58104Y242021D01*
X-48558Y244115D01*
X-38936Y245834D01*
X-29255Y247173D01*
X-19528Y248131D01*
X-9772Y248706D01*
X-89Y248896D01*
X0Y248879D01*
X89Y248896D01*
X9772Y248706D01*
D02*
G37*
%LPC*%
G36*
X-50000Y230127D02*
X-50809Y230020D01*
X-51563Y229708D01*
X-52211Y229211D01*
X-52708Y228563D01*
X-53020Y227809D01*
X-53127Y227000D01*
X-53020Y226191D01*
X-52708Y225437D01*
X-52439Y225087D01*
X-52569Y224824D01*
X-52569D01*
Y222561D01*
X-52839Y222173D01*
X-53069Y222173D01*
X-55405D01*
Y217342D01*
X-52839D01*
Y219102D01*
X-52569Y219491D01*
X-52339Y219491D01*
X-47661D01*
X-47431Y219491D01*
X-47161Y219102D01*
Y217342D01*
X-44594D01*
Y222173D01*
X-46931D01*
X-47161Y222173D01*
X-47431Y222561D01*
Y224824D01*
X-47431D01*
X-47561Y225086D01*
X-47292Y225437D01*
X-46980Y226191D01*
X-46873Y227000D01*
X-46980Y227809D01*
X-47292Y228563D01*
X-47789Y229211D01*
X-48437Y229708D01*
X-49191Y230020D01*
X-50000Y230127D01*
D02*
G37*
G36*
X11720Y222811D02*
Y218000D01*
X16531D01*
X16414Y218892D01*
X15877Y220188D01*
X15022Y221302D01*
X13909Y222156D01*
X12612Y222693D01*
X11720Y222811D01*
D02*
G37*
G36*
X-5280Y222831D02*
X-10110D01*
Y218000D01*
X-5280D01*
Y222831D01*
D02*
G37*
G36*
X10720Y222811D02*
X9829Y222693D01*
X8532Y222156D01*
X7419Y221302D01*
X6564Y220188D01*
X6027Y218892D01*
X5910Y218000D01*
X10720D01*
Y222811D01*
D02*
G37*
G36*
X-11111Y222831D02*
X-15941D01*
Y218000D01*
X-11111D01*
Y222831D01*
D02*
G37*
G36*
X55905Y222173D02*
Y217342D01*
X58472D01*
Y222173D01*
X55905D01*
D02*
G37*
G36*
X35000Y233136D02*
X33180Y232993D01*
X31404Y232566D01*
X29717Y231868D01*
X28161Y230914D01*
X26772Y229728D01*
X25586Y228339D01*
X24632Y226783D01*
X23934Y225096D01*
X23507Y223320D01*
X23437Y222431D01*
X20069D01*
Y212569D01*
X23369D01*
Y187642D01*
X23383Y187569D01*
X23229Y186005D01*
X22752Y184431D01*
X21976Y182981D01*
X20979Y181766D01*
X20918Y181725D01*
X16393Y177200D01*
X11300D01*
Y175131D01*
X8329D01*
X8232Y175366D01*
X7639Y176139D01*
X6866Y176732D01*
X5966Y177105D01*
X5000Y177232D01*
X4034Y177105D01*
X3134Y176732D01*
X2361Y176139D01*
X1768Y175366D01*
X1395Y174466D01*
X1268Y173500D01*
X1395Y172534D01*
X1768Y171634D01*
X2361Y170861D01*
X3134Y170268D01*
X4034Y169895D01*
X5000Y169768D01*
X5966Y169895D01*
X6866Y170268D01*
X7639Y170861D01*
X8232Y171634D01*
X8329Y171869D01*
X11300D01*
Y169800D01*
X18700D01*
Y171869D01*
X22858D01*
X22931Y171883D01*
X24495Y171729D01*
X26069Y171252D01*
X27519Y170476D01*
X28734Y169480D01*
X28775Y169418D01*
X34418Y163775D01*
X34479Y163734D01*
X35476Y162519D01*
X36252Y161069D01*
X36729Y159495D01*
X36883Y157931D01*
X36869Y157858D01*
Y133493D01*
X36468Y133194D01*
X35755Y133405D01*
X28723Y135094D01*
X21611Y136412D01*
X14440Y137356D01*
X7230Y137923D01*
X0Y138112D01*
X-7230Y137923D01*
X-14440Y137356D01*
X-21611Y136412D01*
X-28723Y135094D01*
X-35755Y133405D01*
X-42690Y131351D01*
X-49508Y128937D01*
X-56190Y126169D01*
X-62718Y123055D01*
X-69074Y119604D01*
X-75241Y115825D01*
X-81201Y111729D01*
X-86939Y107326D01*
X-92439Y102628D01*
X-97685Y97650D01*
X-102664Y92403D01*
X-107361Y86904D01*
X-111764Y81166D01*
X-114840Y76691D01*
X-115338Y76645D01*
X-143830Y105137D01*
X-143591Y105447D01*
X-143134Y106550D01*
X-142978Y107735D01*
X-143134Y108919D01*
X-143591Y110023D01*
X-144319Y110971D01*
X-145266Y111698D01*
X-146370Y112155D01*
X-147341Y112283D01*
X-147383Y112793D01*
X-146510Y113057D01*
X-144756Y113995D01*
X-143218Y115257D01*
X-141956Y116795D01*
X-141018Y118550D01*
X-140440Y120454D01*
X-140245Y122434D01*
X-140440Y124414D01*
X-141018Y126318D01*
X-141956Y128072D01*
X-143218Y129610D01*
X-144756Y130872D01*
X-146510Y131810D01*
X-148414Y132387D01*
X-150394Y132582D01*
X-152374Y132387D01*
X-154278Y131810D01*
X-156033Y130872D01*
X-157570Y129610D01*
X-158833Y128072D01*
X-159770Y126318D01*
X-160234Y124790D01*
X-160724Y124896D01*
X-160656Y125412D01*
X-160812Y126597D01*
X-161269Y127700D01*
X-161996Y128648D01*
X-162944Y129376D01*
X-164048Y129833D01*
X-165232Y129989D01*
X-166417Y129833D01*
X-167520Y129376D01*
X-168468Y128648D01*
X-169195Y127700D01*
X-169652Y126597D01*
X-169808Y125412D01*
X-169652Y124228D01*
X-169195Y123124D01*
X-168468Y122177D01*
X-167520Y121449D01*
X-166417Y120992D01*
X-165232Y120836D01*
X-164048Y120992D01*
X-162944Y121449D01*
X-161996Y122177D01*
X-161269Y123124D01*
X-160886Y124049D01*
X-160396Y123926D01*
X-160543Y122434D01*
X-160348Y120454D01*
X-159770Y118550D01*
X-158833Y116795D01*
X-157570Y115257D01*
X-156033Y113995D01*
X-154278Y113057D01*
X-152374Y112480D01*
X-150394Y112285D01*
X-149526Y112370D01*
X-149403Y111880D01*
X-149843Y111698D01*
X-150790Y110971D01*
X-151518Y110023D01*
X-151975Y108919D01*
X-152131Y107735D01*
X-151975Y106550D01*
X-151518Y105447D01*
X-150790Y104499D01*
X-149843Y103772D01*
X-148739Y103314D01*
X-147555Y103159D01*
X-146592Y103285D01*
X-116868Y73561D01*
X-119640Y69038D01*
X-123091Y62682D01*
X-126205Y56154D01*
X-128972Y49472D01*
X-131387Y42654D01*
X-133441Y35720D01*
X-135129Y28687D01*
X-136447Y21575D01*
X-137391Y14405D01*
X-137959Y7194D01*
X-138104Y1631D01*
X-156358D01*
Y1636D01*
X-158178Y1493D01*
X-159953Y1066D01*
X-161640Y368D01*
X-163197Y-586D01*
X-164586Y-1772D01*
X-164582Y-1775D01*
X-173056Y-10249D01*
X-174110Y-9812D01*
X-175500Y-9629D01*
X-176890Y-9812D01*
X-178185Y-10349D01*
X-179298Y-11202D01*
X-180151Y-12315D01*
X-180688Y-13610D01*
X-180871Y-15000D01*
X-180688Y-16390D01*
X-180151Y-17685D01*
X-179298Y-18798D01*
X-178185Y-19651D01*
X-176890Y-20188D01*
X-175500Y-20371D01*
X-174110Y-20188D01*
X-172815Y-19651D01*
X-171702Y-18798D01*
X-170849Y-17685D01*
X-170312Y-16390D01*
X-170129Y-15000D01*
X-170312Y-13610D01*
X-170749Y-12556D01*
X-162275Y-4082D01*
X-162234Y-4021D01*
X-161019Y-3024D01*
X-159569Y-2248D01*
X-157995Y-1771D01*
X-156431Y-1617D01*
X-156358Y-1631D01*
X-138106D01*
X-137959Y-7266D01*
X-137391Y-14476D01*
X-136447Y-21647D01*
X-135129Y-28758D01*
X-133441Y-35791D01*
X-131387Y-42726D01*
X-128972Y-49543D01*
X-126205Y-56226D01*
X-126149Y-56342D01*
X-150993Y-81186D01*
X-151430Y-81006D01*
X-152500Y-80865D01*
X-153570Y-81006D01*
X-154568Y-81419D01*
X-155424Y-82076D01*
X-156081Y-82932D01*
X-156494Y-83930D01*
X-156635Y-85000D01*
X-156494Y-86070D01*
X-156081Y-87068D01*
X-155424Y-87924D01*
X-154568Y-88581D01*
X-153570Y-88994D01*
X-152500Y-89135D01*
X-151430Y-88994D01*
X-150432Y-88581D01*
X-149576Y-87924D01*
X-148919Y-87068D01*
X-148505Y-86070D01*
X-148365Y-85000D01*
X-148505Y-83930D01*
X-148686Y-83493D01*
X-124965Y-59772D01*
X-124472Y-59857D01*
X-123091Y-62754D01*
X-119640Y-69110D01*
X-115861Y-75276D01*
X-111764Y-81237D01*
X-107361Y-86975D01*
X-102664Y-92475D01*
X-97685Y-97721D01*
X-92439Y-102700D01*
X-86939Y-107397D01*
X-81201Y-111800D01*
X-75241Y-115896D01*
X-69074Y-119676D01*
X-62718Y-123127D01*
X-56631Y-126030D01*
Y-191779D01*
X-56815Y-191855D01*
X-57568Y-192432D01*
X-58145Y-193184D01*
X-58507Y-194060D01*
X-58631Y-195000D01*
X-58507Y-195940D01*
X-58145Y-196816D01*
X-57568Y-197568D01*
X-56815Y-198145D01*
X-55940Y-198507D01*
X-55000Y-198631D01*
X-54060Y-198507D01*
X-53876Y-198431D01*
X-41883Y-210425D01*
X-41820Y-210466D01*
X-40965Y-211508D01*
X-41016Y-212102D01*
X-41624Y-212427D01*
X-42667Y-213283D01*
X-43523Y-214326D01*
X-44159Y-215516D01*
X-44551Y-216807D01*
X-44683Y-218150D01*
X-44551Y-219493D01*
X-44159Y-220784D01*
X-43523Y-221974D01*
X-42667Y-223017D01*
X-41624Y-223873D01*
X-40434Y-224509D01*
X-39431Y-224813D01*
Y-231187D01*
X-40434Y-231491D01*
X-41624Y-232127D01*
X-42667Y-232983D01*
X-43523Y-234026D01*
X-44159Y-235216D01*
X-44551Y-236507D01*
X-44683Y-237850D01*
X-44551Y-239193D01*
X-44159Y-240484D01*
X-43523Y-241674D01*
X-42667Y-242717D01*
X-41624Y-243573D01*
X-40434Y-244209D01*
X-39143Y-244601D01*
X-37800Y-244733D01*
X-36457Y-244601D01*
X-35166Y-244209D01*
X-33976Y-243573D01*
X-32933Y-242717D01*
X-32077Y-241674D01*
X-31441Y-240484D01*
X-31049Y-239193D01*
X-30917Y-237850D01*
X-31049Y-236507D01*
X-31441Y-235216D01*
X-32077Y-234026D01*
X-32933Y-232983D01*
X-33976Y-232127D01*
X-35166Y-231491D01*
X-36169Y-231187D01*
Y-224813D01*
X-35166Y-224509D01*
X-33976Y-223873D01*
X-32933Y-223017D01*
X-32077Y-221974D01*
X-31441Y-220784D01*
X-31137Y-219781D01*
X-16863D01*
X-16559Y-220784D01*
X-15923Y-221974D01*
X-15067Y-223017D01*
X-14024Y-223873D01*
X-12834Y-224509D01*
X-11831Y-224813D01*
Y-231187D01*
X-12834Y-231491D01*
X-14024Y-232127D01*
X-15067Y-232983D01*
X-15923Y-234026D01*
X-16559Y-235216D01*
X-16951Y-236507D01*
X-17083Y-237850D01*
X-16951Y-239193D01*
X-16559Y-240484D01*
X-15923Y-241674D01*
X-15067Y-242717D01*
X-14024Y-243573D01*
X-12834Y-244209D01*
X-11543Y-244601D01*
X-10200Y-244733D01*
X-8857Y-244601D01*
X-7566Y-244209D01*
X-6376Y-243573D01*
X-5333Y-242717D01*
X-4477Y-241674D01*
X-3841Y-240484D01*
X-3449Y-239193D01*
X-3317Y-237850D01*
X-3449Y-236507D01*
X-3841Y-235216D01*
X-4477Y-234026D01*
X-5333Y-232983D01*
X-6376Y-232127D01*
X-7566Y-231491D01*
X-8569Y-231187D01*
Y-224813D01*
X-7566Y-224509D01*
X-6376Y-223873D01*
X-5333Y-223017D01*
X-4477Y-221974D01*
X-3841Y-220784D01*
X-3449Y-219493D01*
X-3317Y-218150D01*
X-3449Y-216807D01*
X-3841Y-215516D01*
X-4477Y-214326D01*
X-5333Y-213283D01*
X-6376Y-212427D01*
X-7566Y-211791D01*
X-8857Y-211399D01*
X-10200Y-211267D01*
X-11543Y-211399D01*
X-12834Y-211791D01*
X-14024Y-212427D01*
X-15067Y-213283D01*
X-15923Y-214326D01*
X-16559Y-215516D01*
X-16863Y-216519D01*
X-31137D01*
X-31441Y-215516D01*
X-32077Y-214326D01*
X-32933Y-213283D01*
X-33976Y-212427D01*
X-35166Y-211791D01*
X-36457Y-211399D01*
X-37327Y-211313D01*
X-37432Y-211060D01*
X-38386Y-209503D01*
X-39572Y-208114D01*
X-39575Y-208118D01*
X-51569Y-196124D01*
X-51493Y-195940D01*
X-51369Y-195000D01*
X-51493Y-194060D01*
X-51855Y-193184D01*
X-52432Y-192432D01*
X-53184Y-191855D01*
X-53369Y-191779D01*
Y-125765D01*
X-53385Y-125681D01*
X-53477Y-124986D01*
X-53777Y-124260D01*
X-54204Y-123704D01*
X-54252Y-123633D01*
X-54746Y-123302D01*
X-54746Y-123302D01*
X-54781Y-123279D01*
X-54820Y-123272D01*
X-55203Y-123110D01*
X-61242Y-120230D01*
X-67449Y-116860D01*
X-73470Y-113170D01*
X-79290Y-109170D01*
X-84893Y-104870D01*
X-90264Y-100284D01*
X-95387Y-95422D01*
X-100248Y-90299D01*
X-104835Y-84929D01*
X-109134Y-79326D01*
X-113134Y-73506D01*
X-116824Y-67484D01*
X-120194Y-61278D01*
X-122640Y-56149D01*
X-123235Y-54903D01*
X-125937Y-48379D01*
X-128295Y-41721D01*
X-130300Y-34950D01*
X-131949Y-28082D01*
X-133236Y-21138D01*
X-134158Y-14136D01*
X-134712Y-7096D01*
X-134895Y-127D01*
X-134869Y0D01*
X-134893Y118D01*
X-134712Y7024D01*
X-134158Y14065D01*
X-133236Y21067D01*
X-131949Y28011D01*
X-130300Y34878D01*
X-128295Y41650D01*
X-125937Y48307D01*
X-123235Y54832D01*
X-120194Y61206D01*
X-116824Y67413D01*
X-113134Y73435D01*
X-109134Y79255D01*
X-104835Y84858D01*
X-100248Y90228D01*
X-95387Y95351D01*
X-90264Y100212D01*
X-84893Y104799D01*
X-79290Y109098D01*
X-73470Y113099D01*
X-67449Y116789D01*
X-61242Y120158D01*
X-54868Y123199D01*
X-48343Y125901D01*
X-41686Y128259D01*
X-34914Y130265D01*
X-28047Y131913D01*
X-21102Y133201D01*
X-14101Y134122D01*
X-7060Y134677D01*
X0Y134861D01*
X7060Y134677D01*
X14101Y134122D01*
X21102Y133201D01*
X28047Y131913D01*
X34914Y130265D01*
X37881Y129386D01*
X41686Y128259D01*
X48343Y125901D01*
X54868Y123199D01*
X61242Y120158D01*
X67449Y116789D01*
X73470Y113099D01*
X77618Y110248D01*
X79290Y109098D01*
X84893Y104799D01*
X90264Y100212D01*
X95387Y95351D01*
X100248Y90228D01*
X104835Y84858D01*
X109134Y79255D01*
X113134Y73435D01*
X115623Y69373D01*
X116824Y67413D01*
X120194Y61206D01*
X123235Y54832D01*
X125937Y48307D01*
X128295Y41650D01*
X130300Y34878D01*
X131949Y28011D01*
X133236Y21067D01*
X134158Y14065D01*
X134712Y7024D01*
X134894Y87D01*
X134869Y-36D01*
X134894Y-158D01*
X134712Y-7096D01*
X134376Y-11363D01*
X134158Y-14136D01*
X133236Y-21138D01*
X131949Y-28082D01*
X130300Y-34950D01*
X128295Y-41721D01*
X125937Y-48379D01*
X123235Y-54903D01*
X120194Y-61278D01*
X116824Y-67484D01*
X113134Y-73506D01*
X109134Y-79326D01*
X104835Y-84929D01*
X100248Y-90299D01*
X95387Y-95422D01*
X90264Y-100284D01*
X84893Y-104870D01*
X79290Y-109170D01*
X73470Y-113170D01*
X69615Y-115532D01*
X69638Y-115570D01*
X69312Y-115789D01*
X68958Y-116318D01*
X68834Y-116942D01*
X68819Y-116942D01*
X69001Y-117856D01*
X69519Y-118631D01*
X69519Y-118631D01*
X69882Y-118974D01*
X109821Y-158912D01*
X109754Y-159072D01*
X109632Y-160000D01*
X109754Y-160927D01*
X110112Y-161792D01*
X110682Y-162534D01*
X111424Y-163103D01*
X112288Y-163461D01*
X113216Y-163583D01*
X114143Y-163461D01*
X115007Y-163103D01*
X115750Y-162534D01*
X116319Y-161792D01*
X116677Y-160927D01*
X116799Y-160000D01*
X116677Y-159073D01*
X116319Y-158208D01*
X115750Y-157466D01*
X115007Y-156897D01*
X114143Y-156539D01*
X113216Y-156417D01*
X112288Y-156539D01*
X112128Y-156605D01*
X73157Y-117634D01*
X73216Y-117138D01*
X75241Y-115896D01*
X81201Y-111800D01*
X86939Y-107397D01*
X92439Y-102700D01*
X97685Y-97721D01*
X102664Y-92475D01*
X107361Y-86975D01*
X111764Y-81237D01*
X115861Y-75276D01*
X119640Y-69110D01*
X123091Y-62754D01*
X126205Y-56226D01*
X128972Y-49543D01*
X131387Y-42726D01*
X133441Y-35791D01*
X135129Y-28758D01*
X136447Y-21647D01*
X137391Y-14476D01*
X137501Y-13081D01*
X154814D01*
X155308Y-14274D01*
X156206Y-15444D01*
X157376Y-16342D01*
X158738Y-16906D01*
X160200Y-17098D01*
X161662Y-16906D01*
X161971Y-16778D01*
X170238Y-25045D01*
X169744Y-26238D01*
X169552Y-27700D01*
X169744Y-29162D01*
X170308Y-30524D01*
X171206Y-31694D01*
X172376Y-32592D01*
X173738Y-33156D01*
X175200Y-33348D01*
X176662Y-33156D01*
X178024Y-32592D01*
X179194Y-31694D01*
X180092Y-30524D01*
X180656Y-29162D01*
X180848Y-27700D01*
X180656Y-26238D01*
X180092Y-24876D01*
X179194Y-23706D01*
X178024Y-22808D01*
X176662Y-22244D01*
X175200Y-22052D01*
X173738Y-22244D01*
X172545Y-22738D01*
X164653Y-14846D01*
X165092Y-14274D01*
X165656Y-12912D01*
X165848Y-11450D01*
X165656Y-9988D01*
X165092Y-8626D01*
X164194Y-7456D01*
X163024Y-6559D01*
X161662Y-5994D01*
X160200Y-5802D01*
X160078Y-5818D01*
X159947Y-5331D01*
X160524Y-5092D01*
X161694Y-4194D01*
X162592Y-3024D01*
X163156Y-1662D01*
X163348Y-200D01*
X163156Y1262D01*
X162592Y2624D01*
X161694Y3794D01*
X160687Y4566D01*
X160835Y5083D01*
X161376Y5137D01*
X162507Y5480D01*
X163550Y6037D01*
X164463Y6787D01*
X165213Y7700D01*
X165770Y8743D01*
X166113Y9874D01*
X166180Y10550D01*
X160200D01*
X154220D01*
X154287Y9874D01*
X154630Y8743D01*
X155187Y7700D01*
X155937Y6787D01*
X156851Y6037D01*
X157145Y5880D01*
X157051Y5363D01*
X156238Y5256D01*
X154876Y4692D01*
X153706Y3794D01*
X152809Y2624D01*
X152244Y1262D01*
X152052Y-200D01*
X152244Y-1662D01*
X152809Y-3024D01*
X153706Y-4194D01*
X154876Y-5092D01*
X156238Y-5656D01*
X157700Y-5848D01*
X157823Y-5832D01*
X157953Y-6319D01*
X157376Y-6559D01*
X156206Y-7456D01*
X155308Y-8626D01*
X154814Y-9819D01*
X138126D01*
X137787Y-9452D01*
X137959Y-7266D01*
X138148Y-36D01*
X137959Y7194D01*
X137391Y14405D01*
X136447Y21575D01*
X135129Y28687D01*
X133441Y35720D01*
X131387Y42654D01*
X128972Y49472D01*
X126205Y56154D01*
X123091Y62682D01*
X119640Y69038D01*
X119009Y70067D01*
X141344Y92401D01*
X142014Y92365D01*
X143773Y90606D01*
X146985Y93819D01*
X150198Y97031D01*
X148440Y98790D01*
X148174Y99055D01*
X148403Y99460D01*
X152139Y103197D01*
X152245Y103091D01*
X157409Y108255D01*
X154908Y110756D01*
X155191Y111038D01*
X154002Y112227D01*
X151137Y109362D01*
X148273Y106498D01*
X149196Y105575D01*
X149232Y104904D01*
X117542Y73213D01*
X117045Y73272D01*
X115861Y75205D01*
X111764Y81166D01*
X107361Y86904D01*
X102664Y92403D01*
X97685Y97650D01*
X92439Y102628D01*
X86939Y107326D01*
X81424Y111558D01*
X81331Y112172D01*
X104855Y135696D01*
X105260Y135925D01*
X105525Y135659D01*
X107284Y133901D01*
X110496Y137114D01*
X113709Y140326D01*
X111951Y142085D01*
X111685Y142350D01*
X111914Y142755D01*
X112693Y143534D01*
X112799Y143428D01*
X117962Y148592D01*
X117856Y148697D01*
X127805Y158647D01*
X127808Y158643D01*
X128994Y160032D01*
X129948Y161589D01*
X130647Y163275D01*
X131073Y165051D01*
X131216Y166871D01*
X131217D01*
X131345Y167318D01*
X132082Y167541D01*
X133212Y168145D01*
X134203Y168958D01*
X135016Y169949D01*
X135620Y171079D01*
X135992Y172305D01*
X136118Y173581D01*
X135992Y174856D01*
X135620Y176082D01*
X135016Y177212D01*
X134203Y178203D01*
X133212Y179016D01*
X132082Y179620D01*
X130856Y179992D01*
X129581Y180118D01*
X128305Y179992D01*
X127079Y179620D01*
X125949Y179016D01*
X124958Y178203D01*
X124145Y177212D01*
X123541Y176082D01*
X123169Y174856D01*
X123044Y173581D01*
X123169Y172305D01*
X123541Y171079D01*
X124145Y169949D01*
X124958Y168958D01*
X125949Y168145D01*
X127079Y167541D01*
X127949Y167277D01*
Y166871D01*
X127964Y166798D01*
X127810Y165234D01*
X127332Y163660D01*
X126557Y162210D01*
X125560Y160995D01*
X125498Y160953D01*
X116149Y151604D01*
X115744Y151375D01*
X114555Y152564D01*
X111690Y149700D01*
X108826Y146835D01*
X110015Y145646D01*
X109786Y145241D01*
X78281Y113736D01*
X75241Y115825D01*
X69074Y119604D01*
X62718Y123055D01*
X56190Y126169D01*
X49508Y128937D01*
X42690Y131351D01*
X40131Y132109D01*
Y157858D01*
X40136D01*
X39993Y159678D01*
X39566Y161453D01*
X38868Y163140D01*
X37914Y164697D01*
X36728Y166086D01*
X36725Y166083D01*
X31082Y171725D01*
X31086Y171728D01*
X29697Y172914D01*
X28140Y173868D01*
X26454Y174566D01*
X24678Y174993D01*
X22858Y175136D01*
Y175131D01*
X19592D01*
X19400Y175593D01*
X23225Y179418D01*
X23228Y179414D01*
X24414Y180803D01*
X25368Y182360D01*
X26066Y184046D01*
X26493Y185822D01*
X26636Y187642D01*
X26631D01*
Y212569D01*
X29931D01*
Y222431D01*
X27073D01*
X26738Y222801D01*
X26771Y223137D01*
X27248Y224711D01*
X28024Y226162D01*
X29067Y227433D01*
X30338Y228476D01*
X31789Y229252D01*
X33363Y229729D01*
X34927Y229883D01*
X35000Y229869D01*
X40157D01*
X40220Y229881D01*
X41665Y229739D01*
X43115Y229299D01*
X44452Y228585D01*
X45623Y227623D01*
X46584Y226452D01*
X47187Y225324D01*
X46931Y224824D01*
X46931D01*
Y222561D01*
X46661Y222173D01*
X46431Y222173D01*
X44094D01*
Y217342D01*
X46661D01*
Y219102D01*
X46931Y219491D01*
X47161Y219491D01*
X51839D01*
X52069Y219491D01*
X52339Y219102D01*
Y217342D01*
X54905D01*
Y222173D01*
X52569D01*
X52339Y222173D01*
X52069Y222561D01*
Y224824D01*
X50771D01*
X50597Y225549D01*
X49937Y227141D01*
X49038Y228609D01*
X47919Y229919D01*
X46609Y231037D01*
X45141Y231938D01*
X43549Y232597D01*
X41875Y232999D01*
X40157Y233134D01*
Y233131D01*
X35000D01*
Y233136D01*
D02*
G37*
G36*
X43095Y222173D02*
X40528D01*
Y217342D01*
X43095D01*
Y222173D01*
D02*
G37*
G36*
X-43595D02*
Y217342D01*
X-41028D01*
Y222173D01*
X-43595D01*
D02*
G37*
G36*
X-56406D02*
X-58972D01*
Y217342D01*
X-56406D01*
Y222173D01*
D02*
G37*
G36*
X89198Y227492D02*
X86837Y227492D01*
X84505Y227123D01*
X82259Y226393D01*
X80155Y225321D01*
X78245Y223934D01*
X76576Y222264D01*
X75188Y220354D01*
X74344Y218697D01*
X87747Y213145D01*
X93298Y226548D01*
X91530Y227123D01*
X89198Y227492D01*
D02*
G37*
G36*
X-89198D02*
X-91530Y227123D01*
X-93298Y226548D01*
X-87747Y213145D01*
X-74344Y218697D01*
X-75188Y220354D01*
X-76576Y222264D01*
X-78245Y223934D01*
X-80155Y225321D01*
X-82259Y226393D01*
X-84505Y227123D01*
X-86837Y227492D01*
X-89198Y227492D01*
D02*
G37*
G36*
X-24390Y222473D02*
X-25677Y222304D01*
X-26876Y221807D01*
X-27906Y221017D01*
X-28697Y219987D01*
X-29194Y218787D01*
X-29363Y217500D01*
X-29194Y216213D01*
X-28697Y215013D01*
X-27906Y213983D01*
X-26876Y213193D01*
X-25677Y212696D01*
X-24390Y212527D01*
X-23103Y212696D01*
X-21903Y213193D01*
X-20873Y213983D01*
X-20083Y215013D01*
X-19586Y216213D01*
X-19417Y217500D01*
X-19586Y218787D01*
X-20083Y219987D01*
X-20873Y221017D01*
X-21903Y221807D01*
X-23103Y222304D01*
X-24390Y222473D01*
D02*
G37*
G36*
X10720Y217000D02*
X5910D01*
X6027Y216108D01*
X6564Y214812D01*
X7419Y213698D01*
X8532Y212844D01*
X9829Y212306D01*
X10720Y212189D01*
Y217000D01*
D02*
G37*
G36*
X16531D02*
X11720D01*
Y212189D01*
X12612Y212306D01*
X13909Y212844D01*
X15022Y213698D01*
X15877Y214812D01*
X16414Y216108D01*
X16531Y217000D01*
D02*
G37*
G36*
X-5280D02*
X-10110D01*
Y212169D01*
X-5280D01*
Y217000D01*
D02*
G37*
G36*
X-11111D02*
X-15941D01*
Y212169D01*
X-11111D01*
Y217000D01*
D02*
G37*
G36*
X58472Y216342D02*
X55905D01*
Y211512D01*
X58472D01*
Y216342D01*
D02*
G37*
G36*
X54905D02*
X52339D01*
Y211512D01*
X54905D01*
Y216342D01*
D02*
G37*
G36*
X46661D02*
X44094D01*
Y211512D01*
X46661D01*
Y216342D01*
D02*
G37*
G36*
X43095D02*
X40528D01*
Y211512D01*
X43095D01*
Y216342D01*
D02*
G37*
G36*
X-41028D02*
X-43595D01*
Y211512D01*
X-41028D01*
Y216342D01*
D02*
G37*
G36*
X-44594D02*
X-47161D01*
Y211512D01*
X-44594D01*
Y216342D01*
D02*
G37*
G36*
X-52839D02*
X-55405D01*
Y211512D01*
X-52839D01*
Y216342D01*
D02*
G37*
G36*
X-56406D02*
X-58972D01*
Y211512D01*
X-56406D01*
Y216342D01*
D02*
G37*
G36*
X-94222Y226166D02*
X-95879Y225321D01*
X-97789Y223934D01*
X-99458Y222264D01*
X-100846Y220354D01*
X-101918Y218250D01*
X-102648Y216005D01*
X-103017Y213673D01*
X-103017Y211312D01*
X-102648Y208980D01*
X-102073Y207211D01*
X-88671Y212763D01*
X-94222Y226166D01*
D02*
G37*
G36*
X94222Y226166D02*
X88670Y212763D01*
X102073Y207211D01*
X102648Y208980D01*
X103017Y211312D01*
X103017Y213673D01*
X102648Y216005D01*
X101918Y218250D01*
X100846Y220354D01*
X99458Y222264D01*
X97789Y223934D01*
X95879Y225321D01*
X94222Y226166D01*
D02*
G37*
G36*
X73961Y217773D02*
X73387Y216005D01*
X73017Y213673D01*
X73017Y211312D01*
X73387Y208980D01*
X74116Y206734D01*
X75188Y204631D01*
X76576Y202720D01*
X78245Y201051D01*
X80155Y199663D01*
X81812Y198819D01*
X87364Y212222D01*
X73961Y217773D01*
D02*
G37*
G36*
X-73961Y217773D02*
X-87364Y212222D01*
X-81812Y198819D01*
X-80155Y199663D01*
X-78245Y201051D01*
X-76576Y202720D01*
X-75188Y204631D01*
X-74116Y206734D01*
X-73387Y208980D01*
X-73017Y211312D01*
X-73017Y213673D01*
X-73387Y216005D01*
X-73961Y217773D01*
D02*
G37*
G36*
X88288Y211839D02*
X82736Y198436D01*
X84505Y197862D01*
X86837Y197492D01*
X89198Y197492D01*
X91530Y197862D01*
X93775Y198591D01*
X95879Y199663D01*
X97789Y201051D01*
X99459Y202720D01*
X100846Y204631D01*
X101690Y206287D01*
X88288Y211839D01*
D02*
G37*
G36*
X-88288Y211839D02*
X-101690Y206287D01*
X-100846Y204631D01*
X-99459Y202720D01*
X-97789Y201051D01*
X-95879Y199663D01*
X-93775Y198591D01*
X-91530Y197862D01*
X-89198Y197492D01*
X-86837Y197492D01*
X-84505Y197862D01*
X-82736Y198436D01*
X-88288Y211839D01*
D02*
G37*
G36*
X143500Y196417D02*
X141760Y196246D01*
X140088Y195738D01*
X138546Y194914D01*
X137583Y194124D01*
X143500Y188207D01*
X149417Y194124D01*
X148454Y194914D01*
X146912Y195738D01*
X145240Y196246D01*
X143500Y196417D01*
D02*
G37*
G36*
X115661Y196417D02*
X113921Y196246D01*
X112249Y195738D01*
X110707Y194914D01*
X109744Y194124D01*
X115661Y188207D01*
X121578Y194124D01*
X120615Y194914D01*
X119073Y195738D01*
X117401Y196246D01*
X115661Y196417D01*
D02*
G37*
G36*
X136876Y193417D02*
X136086Y192454D01*
X135262Y190912D01*
X134754Y189240D01*
X134583Y187500D01*
X134754Y185760D01*
X135262Y184088D01*
X136086Y182546D01*
X136876Y181583D01*
X142793Y187500D01*
X136876Y193417D01*
D02*
G37*
G36*
X150124Y193417D02*
X144207Y187500D01*
X150124Y181583D01*
X150914Y182546D01*
X151738Y184088D01*
X152246Y185760D01*
X152417Y187500D01*
X152246Y189240D01*
X151738Y190912D01*
X150914Y192454D01*
X150124Y193417D01*
D02*
G37*
G36*
X109037Y193417D02*
X108247Y192454D01*
X107423Y190912D01*
X106915Y189240D01*
X106744Y187500D01*
X106915Y185760D01*
X107423Y184088D01*
X108247Y182546D01*
X109037Y181583D01*
X114954Y187500D01*
X109037Y193417D01*
D02*
G37*
G36*
X122285Y193417D02*
X116368Y187500D01*
X122285Y181583D01*
X123075Y182546D01*
X123899Y184088D01*
X124407Y185760D01*
X124578Y187500D01*
X124407Y189240D01*
X123899Y190912D01*
X123075Y192454D01*
X122285Y193417D01*
D02*
G37*
G36*
X143500Y186793D02*
X137583Y180876D01*
X138546Y180086D01*
X140088Y179262D01*
X141760Y178754D01*
X143500Y178583D01*
X145240Y178754D01*
X146912Y179262D01*
X148454Y180086D01*
X149417Y180876D01*
X143500Y186793D01*
D02*
G37*
G36*
X115661Y186793D02*
X109744Y180876D01*
X110707Y180086D01*
X112249Y179262D01*
X113921Y178754D01*
X115661Y178583D01*
X117401Y178754D01*
X119073Y179262D01*
X120615Y180086D01*
X121578Y180876D01*
X115661Y186793D01*
D02*
G37*
G36*
X-151090Y179890D02*
X-152379Y179720D01*
X-153580Y179222D01*
X-154211Y178738D01*
X-151090Y175617D01*
X-147969Y178738D01*
X-148600Y179222D01*
X-149801Y179720D01*
X-151090Y179890D01*
D02*
G37*
G36*
X-154918Y178031D02*
X-155403Y177400D01*
X-155900Y176199D01*
X-156070Y174910D01*
X-155900Y173621D01*
X-155403Y172420D01*
X-154918Y171789D01*
X-151797Y174910D01*
X-154918Y178031D01*
D02*
G37*
G36*
X-147262Y178031D02*
X-150383Y174910D01*
X-147262Y171789D01*
X-146778Y172420D01*
X-146280Y173621D01*
X-146110Y174910D01*
X-146280Y176199D01*
X-146778Y177400D01*
X-147262Y178031D01*
D02*
G37*
G36*
X-151090Y174203D02*
X-154211Y171082D01*
X-153580Y170597D01*
X-152379Y170100D01*
X-151090Y169930D01*
X-149801Y170100D01*
X-148600Y170597D01*
X-147969Y171082D01*
X-151090Y174203D01*
D02*
G37*
G36*
X-5000Y177232D02*
X-5966Y177105D01*
X-6866Y176732D01*
X-7639Y176139D01*
X-8232Y175366D01*
X-8605Y174466D01*
X-8732Y173500D01*
X-8605Y172534D01*
X-8232Y171634D01*
X-7639Y170861D01*
X-6866Y170268D01*
X-5966Y169895D01*
X-5000Y169768D01*
X-4034Y169895D01*
X-3134Y170268D01*
X-2361Y170861D01*
X-1768Y171634D01*
X-1395Y172534D01*
X-1268Y173500D01*
X-1395Y174466D01*
X-1768Y175366D01*
X-2361Y176139D01*
X-3134Y176732D01*
X-4034Y177105D01*
X-5000Y177232D01*
D02*
G37*
G36*
X-15000D02*
X-15966Y177105D01*
X-16866Y176732D01*
X-17639Y176139D01*
X-18232Y175366D01*
X-18605Y174466D01*
X-18732Y173500D01*
X-18605Y172534D01*
X-18232Y171634D01*
X-17639Y170861D01*
X-16866Y170268D01*
X-15966Y169895D01*
X-15000Y169768D01*
X-14034Y169895D01*
X-13134Y170268D01*
X-12361Y170861D01*
X-11768Y171634D01*
X-11395Y172534D01*
X-11268Y173500D01*
X-11395Y174466D01*
X-11768Y175366D01*
X-12361Y176139D01*
X-13134Y176732D01*
X-14034Y177105D01*
X-15000Y177232D01*
D02*
G37*
G36*
X5500Y167570D02*
Y164000D01*
X9070D01*
X8995Y164570D01*
X8581Y165568D01*
X7924Y166424D01*
X7068Y167081D01*
X6070Y167494D01*
X5500Y167570D01*
D02*
G37*
G36*
X15500D02*
Y164000D01*
X19070D01*
X18994Y164570D01*
X18581Y165568D01*
X17924Y166424D01*
X17068Y167081D01*
X16070Y167494D01*
X15500Y167570D01*
D02*
G37*
G36*
X-14500Y167570D02*
Y164000D01*
X-10931D01*
X-11005Y164570D01*
X-11419Y165568D01*
X-12076Y166424D01*
X-12932Y167081D01*
X-13930Y167494D01*
X-14500Y167570D01*
D02*
G37*
G36*
X-15500Y167569D02*
X-16070Y167494D01*
X-17068Y167081D01*
X-17924Y166424D01*
X-18581Y165568D01*
X-18994Y164570D01*
X-19070Y164000D01*
X-15500D01*
Y167569D01*
D02*
G37*
G36*
X14500D02*
X13930Y167494D01*
X12932Y167081D01*
X12076Y166424D01*
X11419Y165568D01*
X11005Y164570D01*
X10931Y164000D01*
X14500D01*
Y167569D01*
D02*
G37*
G36*
X4500Y167569D02*
X3930Y167494D01*
X2932Y167081D01*
X2076Y166424D01*
X1419Y165568D01*
X1005Y164570D01*
X931Y164000D01*
X4500D01*
Y167569D01*
D02*
G37*
G36*
X-4500Y167570D02*
Y164000D01*
X-931D01*
X-1005Y164570D01*
X-1419Y165568D01*
X-2076Y166424D01*
X-2932Y167081D01*
X-3930Y167494D01*
X-4500Y167570D01*
D02*
G37*
G36*
X-5500Y167569D02*
X-6070Y167494D01*
X-7068Y167081D01*
X-7924Y166424D01*
X-8581Y165568D01*
X-8995Y164570D01*
X-9070Y164000D01*
X-5500D01*
Y167569D01*
D02*
G37*
G36*
X-142182Y170641D02*
X-143383Y170483D01*
X-144501Y170020D01*
X-145462Y169282D01*
X-146200Y168321D01*
X-146663Y167202D01*
X-146821Y166001D01*
X-146663Y164801D01*
X-146200Y163682D01*
X-145462Y162721D01*
X-144501Y161983D01*
X-143383Y161520D01*
X-142182Y161362D01*
X-140981Y161520D01*
X-139862Y161983D01*
X-138901Y162721D01*
X-138164Y163682D01*
X-137700Y164801D01*
X-137542Y166001D01*
X-137700Y167202D01*
X-138164Y168321D01*
X-138901Y169282D01*
X-139862Y170020D01*
X-140981Y170483D01*
X-142182Y170641D01*
D02*
G37*
G36*
X143500Y168578D02*
X141760Y168407D01*
X140088Y167899D01*
X138546Y167075D01*
X137583Y166285D01*
X143500Y160368D01*
X149417Y166285D01*
X148454Y167075D01*
X146912Y167899D01*
X145240Y168407D01*
X143500Y168578D01*
D02*
G37*
G36*
X-5500Y163000D02*
X-9070D01*
X-8995Y162430D01*
X-8581Y161432D01*
X-7924Y160576D01*
X-7068Y159919D01*
X-6070Y159505D01*
X-5500Y159431D01*
Y163000D01*
D02*
G37*
G36*
X-15500Y163000D02*
X-19070D01*
X-18994Y162430D01*
X-18581Y161432D01*
X-17924Y160576D01*
X-17068Y159919D01*
X-16070Y159505D01*
X-15500Y159431D01*
Y163000D01*
D02*
G37*
G36*
X14500D02*
X10930D01*
X11005Y162430D01*
X11419Y161432D01*
X12076Y160576D01*
X12932Y159919D01*
X13930Y159505D01*
X14500Y159431D01*
Y163000D01*
D02*
G37*
G36*
X4500D02*
X930D01*
X1005Y162430D01*
X1419Y161432D01*
X2076Y160576D01*
X2932Y159919D01*
X3930Y159505D01*
X4500Y159431D01*
Y163000D01*
D02*
G37*
G36*
X-930Y163000D02*
X-4500D01*
Y159430D01*
X-3930Y159505D01*
X-2932Y159919D01*
X-2076Y160576D01*
X-1419Y161432D01*
X-1005Y162430D01*
X-930Y163000D01*
D02*
G37*
G36*
X9070Y163000D02*
X5500D01*
Y159430D01*
X6070Y159505D01*
X7068Y159919D01*
X7924Y160576D01*
X8581Y161432D01*
X8995Y162430D01*
X9070Y163000D01*
D02*
G37*
G36*
X19070D02*
X15500D01*
Y159430D01*
X16070Y159505D01*
X17068Y159919D01*
X17924Y160576D01*
X18581Y161432D01*
X18994Y162430D01*
X19070Y163000D01*
D02*
G37*
G36*
X-10930D02*
X-14500D01*
Y159430D01*
X-13930Y159505D01*
X-12932Y159919D01*
X-12076Y160576D01*
X-11419Y161432D01*
X-11005Y162430D01*
X-10930Y163000D01*
D02*
G37*
G36*
X115500Y163127D02*
X114691Y163020D01*
X113937Y162708D01*
X113289Y162211D01*
X112792Y161563D01*
X112480Y160809D01*
X112373Y160000D01*
X112480Y159191D01*
X112515Y159106D01*
X110581Y157172D01*
X110176Y156943D01*
X108987Y158132D01*
X106123Y155267D01*
X103258Y152403D01*
X104447Y151214D01*
X104730Y151497D01*
X107213Y149014D01*
X106930Y148731D01*
X108119Y147542D01*
X110983Y150407D01*
X113848Y153271D01*
X112925Y154194D01*
X112888Y154865D01*
X114967Y156944D01*
X115500Y156873D01*
X116309Y156980D01*
X117063Y157292D01*
X117711Y157789D01*
X118208Y158437D01*
X118520Y159191D01*
X118627Y160000D01*
X118520Y160809D01*
X118208Y161563D01*
X117711Y162211D01*
X117063Y162708D01*
X116309Y163020D01*
X115500Y163127D01*
D02*
G37*
G36*
X107092Y160028D02*
X104580Y157517D01*
X105769Y156328D01*
X108280Y158839D01*
X107092Y160028D01*
D02*
G37*
G36*
X136876Y165578D02*
X136086Y164615D01*
X135262Y163074D01*
X134754Y161401D01*
X134583Y159661D01*
X134754Y157922D01*
X135262Y156249D01*
X136086Y154707D01*
X136876Y153744D01*
X142793Y159661D01*
X136876Y165578D01*
D02*
G37*
G36*
X150124Y165578D02*
X144207Y159661D01*
X150124Y153744D01*
X150914Y154707D01*
X151738Y156249D01*
X152246Y157922D01*
X152417Y159661D01*
X152246Y161401D01*
X151738Y163074D01*
X150914Y164615D01*
X150124Y165578D01*
D02*
G37*
G36*
X103873Y156809D02*
X101362Y154298D01*
X102551Y153110D01*
X105062Y155621D01*
X103873Y156809D01*
D02*
G37*
G36*
X96095Y157940D02*
X93236Y155081D01*
X95260Y153057D01*
X98119Y155916D01*
X96095Y157940D01*
D02*
G37*
G36*
X-133412Y161808D02*
X-134597Y161652D01*
X-135701Y161195D01*
X-136648Y160468D01*
X-137375Y159520D01*
X-137833Y158417D01*
X-137989Y157232D01*
X-137833Y156048D01*
X-137375Y154944D01*
X-136648Y153996D01*
X-135701Y153269D01*
X-134597Y152812D01*
X-133412Y152656D01*
X-132228Y152812D01*
X-131124Y153269D01*
X-130177Y153996D01*
X-129449Y154944D01*
X-128992Y156048D01*
X-128836Y157232D01*
X-128992Y158417D01*
X-129449Y159520D01*
X-130177Y160468D01*
X-131124Y161195D01*
X-132228Y161652D01*
X-133412Y161808D01*
D02*
G37*
G36*
X143500Y158954D02*
X137583Y153037D01*
X138546Y152247D01*
X140088Y151423D01*
X141760Y150916D01*
X143500Y150744D01*
X145240Y150916D01*
X146912Y151423D01*
X148454Y152247D01*
X149417Y153037D01*
X143500Y158954D01*
D02*
G37*
G36*
X98826Y155209D02*
X95967Y152350D01*
X97991Y150326D01*
X100850Y153185D01*
X98826Y155209D01*
D02*
G37*
G36*
X92529Y154374D02*
X89670Y151515D01*
X91694Y149491D01*
X94553Y152350D01*
X92529Y154374D01*
D02*
G37*
G36*
X95260Y151643D02*
X92401Y148784D01*
X94425Y146760D01*
X97284Y149619D01*
X95260Y151643D01*
D02*
G37*
G36*
X158161Y154917D02*
X156421Y154746D01*
X154749Y154238D01*
X153207Y153414D01*
X152244Y152624D01*
X158161Y146707D01*
X164078Y152624D01*
X163115Y153414D01*
X161574Y154238D01*
X159901Y154746D01*
X158161Y154917D01*
D02*
G37*
G36*
X186000Y154917D02*
X184260Y154746D01*
X182588Y154238D01*
X181046Y153414D01*
X180083Y152624D01*
X186000Y146707D01*
X191917Y152624D01*
X190954Y153414D01*
X189412Y154238D01*
X187740Y154746D01*
X186000Y154917D01*
D02*
G37*
G36*
X-182910Y148070D02*
X-184199Y147900D01*
X-185400Y147403D01*
X-186031Y146918D01*
X-182910Y143797D01*
X-179789Y146918D01*
X-180420Y147403D01*
X-181621Y147900D01*
X-182910Y148070D01*
D02*
G37*
G36*
X151537Y151917D02*
X150747Y150954D01*
X149923Y149412D01*
X149416Y147740D01*
X149244Y146000D01*
X149416Y144260D01*
X149923Y142588D01*
X150747Y141046D01*
X151537Y140083D01*
X157454Y146000D01*
X151537Y151917D01*
D02*
G37*
G36*
X179376Y151917D02*
X178586Y150954D01*
X177762Y149412D01*
X177254Y147740D01*
X177083Y146000D01*
X177254Y144260D01*
X177762Y142588D01*
X178586Y141046D01*
X179376Y140083D01*
X185293Y146000D01*
X179376Y151917D01*
D02*
G37*
G36*
X164785Y151917D02*
X158868Y146000D01*
X164785Y140083D01*
X165575Y141046D01*
X166399Y142588D01*
X166907Y144260D01*
X167078Y146000D01*
X166907Y147740D01*
X166399Y149412D01*
X165575Y150954D01*
X164785Y151917D01*
D02*
G37*
G36*
X192624Y151917D02*
X186707Y146000D01*
X192624Y140083D01*
X193414Y141046D01*
X194238Y142588D01*
X194746Y144260D01*
X194917Y146000D01*
X194746Y147740D01*
X194238Y149412D01*
X193414Y150954D01*
X192624Y151917D01*
D02*
G37*
G36*
X-179082Y146211D02*
X-182203Y143090D01*
X-179082Y139969D01*
X-178597Y140600D01*
X-178100Y141801D01*
X-177930Y143090D01*
X-178100Y144379D01*
X-178597Y145580D01*
X-179082Y146211D01*
D02*
G37*
G36*
X-186738Y146211D02*
X-187222Y145580D01*
X-187720Y144379D01*
X-187890Y143090D01*
X-187720Y141801D01*
X-187222Y140600D01*
X-186738Y139969D01*
X-183617Y143090D01*
X-186738Y146211D01*
D02*
G37*
G36*
X-182910Y142383D02*
X-186031Y139262D01*
X-185400Y138778D01*
X-184199Y138280D01*
X-182910Y138110D01*
X-181621Y138280D01*
X-180420Y138778D01*
X-179789Y139262D01*
X-182910Y142383D01*
D02*
G37*
G36*
X186000Y145293D02*
X180083Y139376D01*
X181046Y138586D01*
X182588Y137762D01*
X184260Y137254D01*
X186000Y137083D01*
X187740Y137254D01*
X189412Y137762D01*
X190954Y138586D01*
X191917Y139376D01*
X186000Y145293D01*
D02*
G37*
G36*
X158161Y145293D02*
X152244Y139376D01*
X153207Y138586D01*
X154749Y137762D01*
X156421Y137254D01*
X158161Y137083D01*
X159901Y137254D01*
X161574Y137762D01*
X163115Y138586D01*
X164078Y139376D01*
X158161Y145293D01*
D02*
G37*
G36*
X-115735Y144131D02*
X-116919Y143975D01*
X-118023Y143518D01*
X-118971Y142790D01*
X-119698Y141843D01*
X-120155Y140739D01*
X-120311Y139555D01*
X-120155Y138370D01*
X-119698Y137267D01*
X-118971Y136319D01*
X-118023Y135591D01*
X-116919Y135134D01*
X-115735Y134978D01*
X-114550Y135134D01*
X-113447Y135591D01*
X-112499Y136319D01*
X-111772Y137267D01*
X-111314Y138370D01*
X-111159Y139555D01*
X-111314Y140739D01*
X-111772Y141843D01*
X-112499Y142790D01*
X-113447Y143518D01*
X-114550Y143975D01*
X-115735Y144131D01*
D02*
G37*
G36*
X114416Y139619D02*
X111557Y136760D01*
X113581Y134736D01*
X116440Y137595D01*
X114416Y139619D01*
D02*
G37*
G36*
X110850Y136053D02*
X107991Y133194D01*
X110015Y131170D01*
X112874Y134029D01*
X110850Y136053D01*
D02*
G37*
G36*
X-174002Y138821D02*
X-175202Y138663D01*
X-176321Y138200D01*
X-177282Y137462D01*
X-178020Y136502D01*
X-178483Y135382D01*
X-178641Y134182D01*
X-178483Y132981D01*
X-178020Y131862D01*
X-177282Y130901D01*
X-176321Y130164D01*
X-175202Y129700D01*
X-174002Y129542D01*
X-172801Y129700D01*
X-171682Y130164D01*
X-170721Y130901D01*
X-169983Y131862D01*
X-169520Y132981D01*
X-169362Y134182D01*
X-169520Y135382D01*
X-169983Y136502D01*
X-170721Y137462D01*
X-171682Y138200D01*
X-172801Y138663D01*
X-174002Y138821D01*
D02*
G37*
G36*
X172081Y138618D02*
X170805Y138492D01*
X169579Y138120D01*
X168449Y137516D01*
X167458Y136703D01*
X166645Y135712D01*
X166041Y134582D01*
X165669Y133356D01*
X165544Y132081D01*
X165669Y130805D01*
X166041Y129579D01*
X166645Y128449D01*
X167458Y127458D01*
X168449Y126645D01*
X169579Y126041D01*
X170805Y125669D01*
X172081Y125544D01*
X173356Y125669D01*
X174582Y126041D01*
X175712Y126645D01*
X176703Y127458D01*
X177516Y128449D01*
X178120Y129579D01*
X178492Y130805D01*
X178618Y132081D01*
X178492Y133356D01*
X178120Y134582D01*
X177516Y135712D01*
X176703Y136703D01*
X175712Y137516D01*
X174582Y138120D01*
X173356Y138492D01*
X172081Y138618D01*
D02*
G37*
G36*
X186000Y127078D02*
X184260Y126907D01*
X182588Y126399D01*
X181046Y125575D01*
X180083Y124785D01*
X186000Y118868D01*
X191917Y124785D01*
X190954Y125575D01*
X189412Y126399D01*
X187740Y126907D01*
X186000Y127078D01*
D02*
G37*
G36*
X154000Y121627D02*
X153191Y121520D01*
X152437Y121208D01*
X151789Y120711D01*
X151292Y120063D01*
X150980Y119309D01*
X150873Y118500D01*
X150969Y117776D01*
X150028Y116835D01*
X149623Y116606D01*
X148434Y117795D01*
X145570Y114930D01*
X142705Y112066D01*
X143894Y110877D01*
X144177Y111160D01*
X146660Y108677D01*
X146377Y108394D01*
X147566Y107205D01*
X150430Y110070D01*
X153295Y112934D01*
X152106Y114123D01*
X152335Y114528D01*
X153276Y115469D01*
X154000Y115373D01*
X154809Y115480D01*
X155563Y115792D01*
X156211Y116289D01*
X156708Y116937D01*
X157020Y117691D01*
X157127Y118500D01*
X157020Y119309D01*
X156708Y120063D01*
X156211Y120711D01*
X155563Y121208D01*
X154809Y121520D01*
X154000Y121627D01*
D02*
G37*
G36*
X146538Y119691D02*
X144027Y117180D01*
X145216Y115991D01*
X147727Y118502D01*
X146538Y119691D01*
D02*
G37*
G36*
X143320Y116473D02*
X140809Y113962D01*
X141998Y112773D01*
X144509Y115284D01*
X143320Y116473D01*
D02*
G37*
G36*
X179376Y124078D02*
X178586Y123115D01*
X177762Y121573D01*
X177254Y119901D01*
X177083Y118161D01*
X177254Y116421D01*
X177762Y114749D01*
X178586Y113207D01*
X179376Y112244D01*
X185293Y118161D01*
X179376Y124078D01*
D02*
G37*
G36*
X192624Y124078D02*
X186707Y118161D01*
X192624Y112244D01*
X193414Y113207D01*
X194238Y114749D01*
X194746Y116421D01*
X194917Y118161D01*
X194746Y119901D01*
X194238Y121573D01*
X193414Y123115D01*
X192624Y124078D01*
D02*
G37*
G36*
X132723Y114784D02*
X129864Y111925D01*
X131888Y109901D01*
X134747Y112760D01*
X132723Y114784D01*
D02*
G37*
G36*
X186000Y117454D02*
X180083Y111537D01*
X181046Y110747D01*
X182588Y109923D01*
X184260Y109415D01*
X186000Y109244D01*
X187740Y109415D01*
X189412Y109923D01*
X190954Y110747D01*
X191917Y111537D01*
X186000Y117454D01*
D02*
G37*
G36*
X135454Y112053D02*
X132595Y109194D01*
X134619Y107170D01*
X137478Y110029D01*
X135454Y112053D01*
D02*
G37*
G36*
X129157Y111218D02*
X126298Y108359D01*
X128322Y106335D01*
X131181Y109194D01*
X129157Y111218D01*
D02*
G37*
G36*
X131888Y108487D02*
X129029Y105628D01*
X131053Y103604D01*
X133912Y106463D01*
X131888Y108487D01*
D02*
G37*
G36*
X150905Y96324D02*
X148046Y93465D01*
X150070Y91441D01*
X152929Y94300D01*
X150905Y96324D01*
D02*
G37*
G36*
X212370Y103063D02*
X210018Y102859D01*
X207726Y102289D01*
X206014Y101563D01*
X212705Y88691D01*
X225577Y95382D01*
X224593Y96960D01*
X223045Y98743D01*
X221237Y100261D01*
X219214Y101479D01*
X217025Y102365D01*
X214725Y102897D01*
X212370Y103063D01*
D02*
G37*
G36*
X-211312Y103017D02*
X-213673Y103017D01*
X-216005Y102648D01*
X-218250Y101918D01*
X-220354Y100846D01*
X-222264Y99458D01*
X-223934Y97789D01*
X-225321Y95879D01*
X-226166Y94222D01*
X-212763Y88670D01*
X-207211Y102073D01*
X-208980Y102648D01*
X-211312Y103017D01*
D02*
G37*
G36*
X147339Y92758D02*
X144480Y89899D01*
X146504Y87875D01*
X149363Y90734D01*
X147339Y92758D01*
D02*
G37*
G36*
X-206287Y101690D02*
X-211839Y88288D01*
X-198436Y82736D01*
X-197862Y84505D01*
X-197492Y86837D01*
X-197492Y89198D01*
X-197862Y91530D01*
X-198591Y93775D01*
X-199663Y95879D01*
X-201051Y97789D01*
X-202720Y99459D01*
X-204631Y100846D01*
X-206287Y101690D01*
D02*
G37*
G36*
X205127Y101102D02*
X203550Y100118D01*
X201767Y98570D01*
X200248Y96762D01*
X199031Y94739D01*
X198145Y92550D01*
X197613Y90250D01*
X197446Y87895D01*
X197651Y85543D01*
X198221Y83251D01*
X198946Y81539D01*
X211818Y88230D01*
X205127Y101102D01*
D02*
G37*
G36*
X226038Y94495D02*
X213166Y87804D01*
X219858Y74932D01*
X221435Y75917D01*
X223218Y77465D01*
X224737Y79273D01*
X225954Y81296D01*
X226840Y83484D01*
X227372Y85785D01*
X227538Y88140D01*
X227334Y90492D01*
X226764Y92783D01*
X226038Y94495D01*
D02*
G37*
G36*
X-226548Y93298D02*
X-227123Y91530D01*
X-227492Y89198D01*
X-227492Y86837D01*
X-227123Y84505D01*
X-226393Y82259D01*
X-225321Y80155D01*
X-223934Y78245D01*
X-222264Y76576D01*
X-220354Y75188D01*
X-218697Y74344D01*
X-213145Y87747D01*
X-226548Y93298D01*
D02*
G37*
G36*
X-212222Y87364D02*
X-217773Y73961D01*
X-216005Y73387D01*
X-213673Y73017D01*
X-211312Y73017D01*
X-208980Y73387D01*
X-206734Y74116D01*
X-204631Y75188D01*
X-202720Y76576D01*
X-201051Y78245D01*
X-199663Y80155D01*
X-198819Y81812D01*
X-212222Y87364D01*
D02*
G37*
G36*
X212279Y87343D02*
X199407Y80652D01*
X200392Y79074D01*
X201940Y77292D01*
X203748Y75773D01*
X205771Y74556D01*
X207959Y73670D01*
X210260Y73137D01*
X212615Y72971D01*
X214967Y73176D01*
X217258Y73746D01*
X218970Y74471D01*
X212279Y87343D01*
D02*
G37*
G36*
X223200Y38782D02*
Y32800D01*
X229182D01*
X229106Y33574D01*
X228734Y34800D01*
X228131Y35929D01*
X227319Y36918D01*
X226329Y37731D01*
X225200Y38334D01*
X223974Y38706D01*
X223200Y38782D01*
D02*
G37*
G36*
X222200Y38782D02*
X221426Y38706D01*
X220201Y38334D01*
X219071Y37731D01*
X218082Y36918D01*
X217269Y35929D01*
X216666Y34800D01*
X216294Y33574D01*
X216218Y32800D01*
X222200D01*
Y38782D01*
D02*
G37*
G36*
X178200Y33280D02*
Y27800D01*
X183680D01*
X183613Y28476D01*
X183270Y29607D01*
X182713Y30650D01*
X181963Y31563D01*
X181050Y32313D01*
X180007Y32870D01*
X178876Y33213D01*
X178200Y33280D01*
D02*
G37*
G36*
X177200Y33280D02*
X176524Y33213D01*
X175393Y32870D01*
X174351Y32313D01*
X173437Y31563D01*
X172687Y30650D01*
X172130Y29607D01*
X171787Y28476D01*
X171720Y27800D01*
X177200D01*
Y33280D01*
D02*
G37*
G36*
X183680Y26800D02*
X178200D01*
Y21320D01*
X178876Y21387D01*
X180007Y21730D01*
X181050Y22287D01*
X181963Y23037D01*
X182713Y23950D01*
X183270Y24993D01*
X183613Y26124D01*
X183680Y26800D01*
D02*
G37*
G36*
X177200D02*
X171720D01*
X171787Y26124D01*
X172130Y24993D01*
X172687Y23950D01*
X173437Y23037D01*
X174351Y22287D01*
X175393Y21730D01*
X176524Y21387D01*
X177200Y21320D01*
Y26800D01*
D02*
G37*
G36*
X229182Y31800D02*
X222700D01*
X216218D01*
X216294Y31026D01*
X216666Y29801D01*
X217269Y28671D01*
X218082Y27682D01*
X219071Y26869D01*
X220201Y26266D01*
X221426Y25894D01*
X222589Y25780D01*
X222727Y25494D01*
X222748Y25271D01*
X222454Y25046D01*
X221837Y24242D01*
X221449Y23305D01*
X221317Y22300D01*
X221449Y21295D01*
X221837Y20358D01*
X222454Y19554D01*
X223258Y18937D01*
X224195Y18549D01*
X225200Y18417D01*
X226205Y18549D01*
X227142Y18937D01*
X227946Y19554D01*
X228563Y20358D01*
X228951Y21295D01*
X229083Y22300D01*
X228951Y23305D01*
X228563Y24242D01*
X227946Y25046D01*
X227142Y25663D01*
X226205Y26051D01*
X225927Y26087D01*
X225833Y26604D01*
X226329Y26869D01*
X227319Y27682D01*
X228131Y28671D01*
X228734Y29801D01*
X229106Y31026D01*
X229182Y31800D01*
D02*
G37*
G36*
X-210000Y19120D02*
Y15500D01*
X-206380D01*
X-206457Y16083D01*
X-206875Y17093D01*
X-207540Y17960D01*
X-208407Y18625D01*
X-209417Y19043D01*
X-210000Y19120D01*
D02*
G37*
G36*
X-211000Y19120D02*
X-211583Y19043D01*
X-212593Y18625D01*
X-213460Y17960D01*
X-214125Y17093D01*
X-214543Y16083D01*
X-214620Y15500D01*
X-211000D01*
Y19120D01*
D02*
G37*
G36*
X-169775Y20725D02*
X-175000D01*
Y15500D01*
X-169775D01*
Y20725D01*
D02*
G37*
G36*
X-176000D02*
X-181225D01*
Y15500D01*
X-176000D01*
Y20725D01*
D02*
G37*
G36*
X160700Y17030D02*
Y11550D01*
X166180D01*
X166113Y12226D01*
X165770Y13357D01*
X165213Y14399D01*
X164463Y15313D01*
X163550Y16063D01*
X162507Y16620D01*
X161376Y16963D01*
X160700Y17030D01*
D02*
G37*
G36*
X159700Y17030D02*
X159024Y16963D01*
X157893Y16620D01*
X156851Y16063D01*
X155937Y15313D01*
X155187Y14399D01*
X154630Y13357D01*
X154287Y12226D01*
X154220Y11550D01*
X159700D01*
Y17030D01*
D02*
G37*
G36*
X-211000Y14500D02*
X-214620D01*
X-214543Y13917D01*
X-214125Y12907D01*
X-213460Y12040D01*
X-212593Y11375D01*
X-211583Y10957D01*
X-211000Y10880D01*
Y14500D01*
D02*
G37*
G36*
X-206380D02*
X-210000D01*
Y10880D01*
X-209417Y10957D01*
X-208407Y11375D01*
X-207540Y12040D01*
X-206875Y12907D01*
X-206457Y13917D01*
X-206380Y14500D01*
D02*
G37*
G36*
X187700Y24183D02*
X186357Y24051D01*
X185066Y23659D01*
X183876Y23023D01*
X182833Y22167D01*
X181977Y21124D01*
X181341Y19934D01*
X180949Y18643D01*
X180817Y17300D01*
X180949Y15957D01*
X181341Y14666D01*
X181977Y13476D01*
X182833Y12433D01*
X183876Y11577D01*
X185066Y10941D01*
X186357Y10549D01*
X187700Y10417D01*
X189043Y10549D01*
X190334Y10941D01*
X191524Y11577D01*
X192567Y12433D01*
X193423Y13476D01*
X194059Y14666D01*
X194451Y15957D01*
X194583Y17300D01*
X194451Y18643D01*
X194059Y19934D01*
X193423Y21124D01*
X192567Y22167D01*
X191524Y23023D01*
X190334Y23659D01*
X189043Y24051D01*
X187700Y24183D01*
D02*
G37*
G36*
X-169775Y14500D02*
X-175000D01*
Y9275D01*
X-169775D01*
Y14500D01*
D02*
G37*
G36*
X-176000D02*
X-181225D01*
Y9275D01*
X-176000D01*
Y14500D01*
D02*
G37*
G36*
X-190750Y4750D02*
X-195000D01*
Y500D01*
X-190750D01*
Y4750D01*
D02*
G37*
G36*
X-196000D02*
X-200250D01*
Y500D01*
X-196000D01*
Y4750D01*
D02*
G37*
G36*
X212200Y3683D02*
X211195Y3551D01*
X210258Y3163D01*
X209454Y2546D01*
X208837Y1742D01*
X208449Y805D01*
X208317Y-200D01*
X208449Y-1205D01*
X208837Y-2142D01*
X209454Y-2946D01*
X210258Y-3563D01*
X211195Y-3951D01*
X212200Y-4083D01*
X213205Y-3951D01*
X214142Y-3563D01*
X214946Y-2946D01*
X215563Y-2142D01*
X215951Y-1205D01*
X216083Y-200D01*
X215951Y805D01*
X215563Y1742D01*
X214946Y2546D01*
X214142Y3163D01*
X213205Y3551D01*
X212200Y3683D01*
D02*
G37*
G36*
X-175500Y4388D02*
X-176636Y4238D01*
X-177694Y3800D01*
X-178603Y3102D01*
X-179300Y2194D01*
X-179738Y1135D01*
X-179887Y-0D01*
X-179738Y-1136D01*
X-179300Y-2194D01*
X-178603Y-3102D01*
X-177694Y-3800D01*
X-176636Y-4238D01*
X-175500Y-4388D01*
X-174364Y-4238D01*
X-173306Y-3800D01*
X-172397Y-3102D01*
X-171700Y-2194D01*
X-171262Y-1136D01*
X-171113Y-0D01*
X-171262Y1135D01*
X-171700Y2194D01*
X-172397Y3102D01*
X-173306Y3800D01*
X-174364Y4238D01*
X-175500Y4388D01*
D02*
G37*
G36*
X-190750Y-500D02*
X-195000D01*
Y-4750D01*
X-190750D01*
Y-500D01*
D02*
G37*
G36*
X-196000D02*
X-200250D01*
Y-4750D01*
X-196000D01*
Y-500D01*
D02*
G37*
G36*
X-230000Y-10880D02*
Y-14500D01*
X-226380D01*
X-226457Y-13917D01*
X-226875Y-12907D01*
X-227540Y-12040D01*
X-228407Y-11375D01*
X-229417Y-10957D01*
X-230000Y-10880D01*
D02*
G37*
G36*
X-231000D02*
X-231583Y-10957D01*
X-232593Y-11375D01*
X-233460Y-12040D01*
X-234125Y-12907D01*
X-234543Y-13917D01*
X-234620Y-14500D01*
X-231000D01*
Y-10880D01*
D02*
G37*
G36*
X-230500Y-15000D02*
D01*
D01*
D01*
D02*
G37*
G36*
X-226380Y-15500D02*
X-230000D01*
Y-19120D01*
X-229417Y-19043D01*
X-228407Y-18625D01*
X-227540Y-17960D01*
X-226875Y-17093D01*
X-226457Y-16083D01*
X-226380Y-15500D01*
D02*
G37*
G36*
X-231000D02*
X-234620D01*
X-234543Y-16083D01*
X-234125Y-17093D01*
X-233460Y-17960D01*
X-232593Y-18625D01*
X-231583Y-19043D01*
X-231000Y-19120D01*
Y-15500D01*
D02*
G37*
G36*
X187700Y-10817D02*
X186357Y-10949D01*
X185066Y-11341D01*
X183876Y-11977D01*
X182833Y-12833D01*
X181977Y-13876D01*
X181341Y-15066D01*
X180949Y-16357D01*
X180817Y-17700D01*
X180949Y-19043D01*
X181341Y-20334D01*
X181977Y-21524D01*
X182833Y-22567D01*
X183876Y-23423D01*
X185066Y-24059D01*
X186357Y-24451D01*
X187700Y-24583D01*
X189043Y-24451D01*
X190334Y-24059D01*
X191524Y-23423D01*
X192567Y-22567D01*
X193423Y-21524D01*
X194059Y-20334D01*
X194451Y-19043D01*
X194583Y-17700D01*
X194451Y-16357D01*
X194059Y-15066D01*
X193423Y-13876D01*
X192567Y-12833D01*
X191524Y-11977D01*
X190334Y-11341D01*
X189043Y-10949D01*
X187700Y-10817D01*
D02*
G37*
G36*
X225200Y-18817D02*
X224195Y-18949D01*
X223258Y-19337D01*
X222454Y-19954D01*
X221837Y-20758D01*
X221449Y-21695D01*
X221317Y-22700D01*
X221449Y-23705D01*
X221837Y-24642D01*
X222454Y-25446D01*
X223258Y-26063D01*
X224195Y-26451D01*
X225200Y-26583D01*
X226205Y-26451D01*
X227142Y-26063D01*
X227946Y-25446D01*
X228563Y-24642D01*
X228951Y-23705D01*
X229083Y-22700D01*
X228951Y-21695D01*
X228563Y-20758D01*
X227946Y-19954D01*
X227142Y-19337D01*
X226205Y-18949D01*
X225200Y-18817D01*
D02*
G37*
G36*
X213673Y-73017D02*
X211312Y-73017D01*
X208980Y-73387D01*
X206734Y-74116D01*
X204631Y-75188D01*
X202720Y-76576D01*
X201051Y-78245D01*
X199663Y-80155D01*
X198819Y-81812D01*
X212222Y-87364D01*
X217773Y-73961D01*
X216005Y-73387D01*
X213673Y-73017D01*
D02*
G37*
G36*
X-213673D02*
X-216005Y-73387D01*
X-217773Y-73961D01*
X-212222Y-87364D01*
X-198819Y-81812D01*
X-199663Y-80155D01*
X-201051Y-78245D01*
X-202720Y-76576D01*
X-204631Y-75188D01*
X-206734Y-74116D01*
X-208980Y-73387D01*
X-211312Y-73017D01*
X-213673Y-73017D01*
D02*
G37*
G36*
X218697Y-74344D02*
X213146Y-87747D01*
X226548Y-93298D01*
X227123Y-91530D01*
X227492Y-89198D01*
X227492Y-86837D01*
X227123Y-84505D01*
X226393Y-82259D01*
X225321Y-80155D01*
X223934Y-78245D01*
X222264Y-76576D01*
X220354Y-75188D01*
X218697Y-74344D01*
D02*
G37*
G36*
X-218697Y-74344D02*
X-220354Y-75188D01*
X-222264Y-76576D01*
X-223934Y-78245D01*
X-225321Y-80155D01*
X-226393Y-82259D01*
X-227123Y-84505D01*
X-227492Y-86837D01*
X-227492Y-89198D01*
X-227123Y-91530D01*
X-226548Y-93298D01*
X-213145Y-87747D01*
X-218697Y-74344D01*
D02*
G37*
G36*
X-198436Y-82736D02*
X-211839Y-88288D01*
X-206287Y-101690D01*
X-204631Y-100846D01*
X-202720Y-99459D01*
X-201051Y-97789D01*
X-199663Y-95879D01*
X-198591Y-93775D01*
X-197862Y-91530D01*
X-197492Y-89198D01*
X-197492Y-86837D01*
X-197862Y-84505D01*
X-198436Y-82736D01*
D02*
G37*
G36*
X198436Y-82736D02*
X197862Y-84505D01*
X197492Y-86837D01*
X197492Y-89198D01*
X197862Y-91530D01*
X198591Y-93775D01*
X199663Y-95879D01*
X201051Y-97789D01*
X202720Y-99459D01*
X204631Y-100846D01*
X206287Y-101690D01*
X211839Y-88288D01*
X198436Y-82736D01*
D02*
G37*
G36*
X212763Y-88670D02*
X207211Y-102073D01*
X208980Y-102648D01*
X211312Y-103017D01*
X213673Y-103017D01*
X216005Y-102648D01*
X218250Y-101918D01*
X220354Y-100846D01*
X222264Y-99458D01*
X223934Y-97789D01*
X225321Y-95879D01*
X226166Y-94222D01*
X212763Y-88670D01*
D02*
G37*
G36*
X-212763Y-88670D02*
X-226166Y-94222D01*
X-225321Y-95879D01*
X-223934Y-97789D01*
X-222264Y-99458D01*
X-220354Y-100846D01*
X-218250Y-101918D01*
X-216005Y-102648D01*
X-213673Y-103017D01*
X-211312Y-103017D01*
X-208980Y-102648D01*
X-207211Y-102073D01*
X-212763Y-88670D01*
D02*
G37*
G36*
X167571Y-101658D02*
X166539Y-101794D01*
X165578Y-102192D01*
X165152Y-102519D01*
X167571Y-104938D01*
X169990Y-102518D01*
X169564Y-102192D01*
X168603Y-101794D01*
X167571Y-101658D01*
D02*
G37*
G36*
X164445Y-103226D02*
X164118Y-103651D01*
X163720Y-104613D01*
X163584Y-105645D01*
X163720Y-106676D01*
X164118Y-107638D01*
X164445Y-108064D01*
X166864Y-105645D01*
X164445Y-103226D01*
D02*
G37*
G36*
X170697Y-103226D02*
X168278Y-105645D01*
X170697Y-108064D01*
X171024Y-107638D01*
X171422Y-106676D01*
X171558Y-105645D01*
X171422Y-104613D01*
X171024Y-103651D01*
X170697Y-103226D01*
D02*
G37*
G36*
X167571Y-106352D02*
X165152Y-108771D01*
X165578Y-109097D01*
X166539Y-109496D01*
X167571Y-109632D01*
X168603Y-109496D01*
X169564Y-109097D01*
X169990Y-108771D01*
X167571Y-106352D01*
D02*
G37*
G36*
X160500Y-109132D02*
X159573Y-109255D01*
X158708Y-109612D01*
X157966Y-110182D01*
X157397Y-110924D01*
X157039Y-111788D01*
X156917Y-112716D01*
X157039Y-113643D01*
X157397Y-114507D01*
X157966Y-115250D01*
X158708Y-115819D01*
X159573Y-116177D01*
X160500Y-116299D01*
X161427Y-116177D01*
X162292Y-115819D01*
X163034Y-115250D01*
X163603Y-114507D01*
X163961Y-113643D01*
X164083Y-112716D01*
X163961Y-111788D01*
X163603Y-110924D01*
X163034Y-110182D01*
X162292Y-109612D01*
X161427Y-109255D01*
X160500Y-109132D01*
D02*
G37*
G36*
X-144735Y-105362D02*
X-146010Y-105488D01*
X-147237Y-105859D01*
X-148367Y-106464D01*
X-149357Y-107276D01*
X-150171Y-108267D01*
X-150775Y-109397D01*
X-151147Y-110624D01*
X-151272Y-111899D01*
X-151147Y-113174D01*
X-150775Y-114400D01*
X-150171Y-115531D01*
X-149357Y-116521D01*
X-148367Y-117334D01*
X-147237Y-117938D01*
X-146010Y-118310D01*
X-144735Y-118436D01*
X-143460Y-118310D01*
X-142234Y-117938D01*
X-141103Y-117334D01*
X-140113Y-116521D01*
X-139300Y-115531D01*
X-138696Y-114400D01*
X-138324Y-113174D01*
X-138198Y-111899D01*
X-138324Y-110624D01*
X-138696Y-109397D01*
X-139300Y-108267D01*
X-140113Y-107276D01*
X-141103Y-106464D01*
X-142234Y-105859D01*
X-143460Y-105488D01*
X-144735Y-105362D01*
D02*
G37*
G36*
X188784Y-106179D02*
X187509Y-106304D01*
X186283Y-106676D01*
X185152Y-107280D01*
X184162Y-108093D01*
X183349Y-109084D01*
X182745Y-110214D01*
X182373Y-111441D01*
X182247Y-112716D01*
X182373Y-113991D01*
X182745Y-115217D01*
X183349Y-116348D01*
X184162Y-117338D01*
X185152Y-118151D01*
X186283Y-118755D01*
X187509Y-119127D01*
X188784Y-119253D01*
X190060Y-119127D01*
X191286Y-118755D01*
X192416Y-118151D01*
X193407Y-117338D01*
X194220Y-116348D01*
X194824Y-115217D01*
X195196Y-113991D01*
X195321Y-112716D01*
X195196Y-111441D01*
X194824Y-110214D01*
X194220Y-109084D01*
X193407Y-108093D01*
X192416Y-107280D01*
X191286Y-106676D01*
X190060Y-106304D01*
X188784Y-106179D01*
D02*
G37*
G36*
X-115978Y-110103D02*
X-117213Y-110266D01*
X-118365Y-110743D01*
X-119354Y-111501D01*
X-120113Y-112490D01*
X-120590Y-113642D01*
X-120752Y-114878D01*
X-120590Y-116113D01*
X-120113Y-117265D01*
X-119354Y-118254D01*
X-118365Y-119013D01*
X-117213Y-119490D01*
X-115978Y-119652D01*
X-114742Y-119490D01*
X-113590Y-119013D01*
X-112601Y-118254D01*
X-111843Y-117265D01*
X-111366Y-116113D01*
X-111203Y-114878D01*
X-111366Y-113642D01*
X-111843Y-112490D01*
X-112601Y-111501D01*
X-113590Y-110743D01*
X-114742Y-110266D01*
X-115978Y-110103D01*
D02*
G37*
G36*
X0Y125875D02*
X-7058Y125677D01*
X-14094Y125084D01*
X-21085Y124097D01*
X-28010Y122719D01*
X-34847Y120956D01*
X-41574Y118812D01*
X-48170Y116294D01*
X-54615Y113410D01*
X-60888Y110169D01*
X-66970Y106582D01*
X-72840Y102659D01*
X-78482Y98413D01*
X-83877Y93858D01*
X-89007Y89007D01*
X-93858Y83877D01*
X-98413Y78482D01*
X-102659Y72840D01*
X-106582Y66970D01*
X-110169Y60888D01*
X-113410Y54615D01*
X-116294Y48170D01*
X-118812Y41574D01*
X-120956Y34847D01*
X-122719Y28010D01*
X-124097Y21085D01*
X-125084Y14094D01*
X-125677Y7058D01*
X-125875Y0D01*
X-125677Y-7058D01*
X-125084Y-14094D01*
X-124097Y-21085D01*
X-122719Y-28010D01*
X-120956Y-34847D01*
X-118812Y-41574D01*
X-116294Y-48170D01*
X-113410Y-54615D01*
X-110169Y-60888D01*
X-106582Y-66970D01*
X-102659Y-72840D01*
X-98413Y-78482D01*
X-93858Y-83877D01*
X-89007Y-89007D01*
X-83877Y-93858D01*
X-78482Y-98413D01*
X-72840Y-102659D01*
X-66970Y-106582D01*
X-60888Y-110169D01*
X-54615Y-113410D01*
X-48170Y-116294D01*
X-41574Y-118812D01*
X-34847Y-120956D01*
X-28010Y-122719D01*
X-21085Y-124097D01*
X-14094Y-125084D01*
X-7058Y-125677D01*
X0Y-125875D01*
X7058Y-125677D01*
X14094Y-125084D01*
X21085Y-124097D01*
X28010Y-122719D01*
X34847Y-120956D01*
X41574Y-118812D01*
X48170Y-116294D01*
X54615Y-113410D01*
X60888Y-110169D01*
X66970Y-106582D01*
X72840Y-102659D01*
X78482Y-98413D01*
X83877Y-93858D01*
X89007Y-89007D01*
X93858Y-83877D01*
X98413Y-78482D01*
X102659Y-72840D01*
X106582Y-66970D01*
X110169Y-60888D01*
X113410Y-54615D01*
X116294Y-48170D01*
X118812Y-41574D01*
X120956Y-34847D01*
X122719Y-28010D01*
X124097Y-21085D01*
X125084Y-14094D01*
X125677Y-7058D01*
X125875Y0D01*
X125677Y7058D01*
X125084Y14094D01*
X124097Y21085D01*
X122719Y28010D01*
X120956Y34847D01*
X118812Y41574D01*
X116294Y48170D01*
X113410Y54615D01*
X110169Y60888D01*
X106582Y66970D01*
X102659Y72840D01*
X98413Y78482D01*
X93858Y83877D01*
X89007Y89007D01*
X83877Y93858D01*
X78482Y98413D01*
X72840Y102659D01*
X66970Y106582D01*
X60888Y110169D01*
X54615Y113410D01*
X48170Y116294D01*
X41574Y118812D01*
X34847Y120956D01*
X28010Y122719D01*
X21085Y124097D01*
X14094Y125084D01*
X7058Y125677D01*
X0Y125875D01*
D02*
G37*
G36*
X-162413Y-123040D02*
X-163688Y-123165D01*
X-164914Y-123537D01*
X-166045Y-124141D01*
X-167035Y-124954D01*
X-167848Y-125945D01*
X-168452Y-127075D01*
X-168824Y-128301D01*
X-168950Y-129577D01*
X-168824Y-130852D01*
X-168452Y-132078D01*
X-167848Y-133208D01*
X-167035Y-134199D01*
X-166045Y-135012D01*
X-164914Y-135616D01*
X-163688Y-135988D01*
X-162413Y-136114D01*
X-161137Y-135988D01*
X-159911Y-135616D01*
X-158781Y-135012D01*
X-157791Y-134199D01*
X-156977Y-133208D01*
X-156373Y-132078D01*
X-156001Y-130852D01*
X-155876Y-129577D01*
X-156001Y-128301D01*
X-156373Y-127075D01*
X-156977Y-125945D01*
X-157791Y-124954D01*
X-158781Y-124141D01*
X-159911Y-123537D01*
X-161137Y-123165D01*
X-162413Y-123040D01*
D02*
G37*
G36*
X500Y-143031D02*
Y-146500D01*
X3969D01*
X3897Y-145956D01*
X3494Y-144983D01*
X2853Y-144147D01*
X2017Y-143506D01*
X1044Y-143103D01*
X500Y-143031D01*
D02*
G37*
G36*
X-500D02*
X-1044Y-143103D01*
X-2017Y-143506D01*
X-2853Y-144147D01*
X-3494Y-144983D01*
X-3897Y-145956D01*
X-3969Y-146500D01*
X-500D01*
Y-143031D01*
D02*
G37*
G36*
X160500Y-134463D02*
X159225Y-134589D01*
X157998Y-134961D01*
X156868Y-135565D01*
X155878Y-136378D01*
X155065Y-137368D01*
X154461Y-138498D01*
X154089Y-139725D01*
X153963Y-141000D01*
X154089Y-142275D01*
X154461Y-143502D01*
X155065Y-144632D01*
X155878Y-145622D01*
X156868Y-146435D01*
X157998Y-147039D01*
X159225Y-147411D01*
X160500Y-147537D01*
X161775Y-147411D01*
X163002Y-147039D01*
X164132Y-146435D01*
X165122Y-145622D01*
X165935Y-144632D01*
X166539Y-143502D01*
X166911Y-142275D01*
X167037Y-141000D01*
X166911Y-139725D01*
X166539Y-138498D01*
X165935Y-137368D01*
X165122Y-136378D01*
X164132Y-135565D01*
X163002Y-134961D01*
X161775Y-134589D01*
X160500Y-134463D01*
D02*
G37*
G36*
X3969Y-147500D02*
X500D01*
Y-150969D01*
X1044Y-150897D01*
X2017Y-150494D01*
X2853Y-149853D01*
X3494Y-149017D01*
X3897Y-148044D01*
X3969Y-147500D01*
D02*
G37*
G36*
X-500D02*
X-3969D01*
X-3897Y-148044D01*
X-3494Y-149017D01*
X-2853Y-149853D01*
X-2017Y-150494D01*
X-1044Y-150897D01*
X-500Y-150969D01*
Y-147500D01*
D02*
G37*
G36*
X120287Y-148942D02*
X119255Y-149078D01*
X118293Y-149476D01*
X117868Y-149803D01*
X120287Y-152222D01*
X122706Y-149803D01*
X122280Y-149476D01*
X121319Y-149078D01*
X120287Y-148942D01*
D02*
G37*
G36*
X-180090Y-140717D02*
X-181366Y-140843D01*
X-182592Y-141215D01*
X-183722Y-141819D01*
X-184713Y-142632D01*
X-185526Y-143623D01*
X-186130Y-144753D01*
X-186502Y-145979D01*
X-186627Y-147254D01*
X-186502Y-148530D01*
X-186130Y-149756D01*
X-185526Y-150886D01*
X-184713Y-151877D01*
X-183722Y-152690D01*
X-182592Y-153294D01*
X-181366Y-153666D01*
X-180090Y-153791D01*
X-178815Y-153666D01*
X-177589Y-153294D01*
X-176459Y-152690D01*
X-175468Y-151877D01*
X-174655Y-150886D01*
X-174051Y-149756D01*
X-173679Y-148530D01*
X-173554Y-147254D01*
X-173679Y-145979D01*
X-174051Y-144753D01*
X-174655Y-143623D01*
X-175468Y-142632D01*
X-176459Y-141819D01*
X-177589Y-141215D01*
X-178815Y-140843D01*
X-180090Y-140717D01*
D02*
G37*
G36*
X123413Y-150510D02*
X120994Y-152929D01*
X123413Y-155348D01*
X123740Y-154922D01*
X124138Y-153961D01*
X124274Y-152929D01*
X124138Y-151897D01*
X123740Y-150935D01*
X123413Y-150510D01*
D02*
G37*
G36*
X117161Y-150510D02*
X116834Y-150935D01*
X116436Y-151897D01*
X116300Y-152929D01*
X116436Y-153961D01*
X116834Y-154922D01*
X117161Y-155348D01*
X119580Y-152929D01*
X117161Y-150510D01*
D02*
G37*
G36*
X-87500Y-148365D02*
X-88570Y-148505D01*
X-89568Y-148919D01*
X-90424Y-149576D01*
X-91081Y-150432D01*
X-91495Y-151430D01*
X-91635Y-152500D01*
X-91495Y-153570D01*
X-91081Y-154568D01*
X-90424Y-155424D01*
X-89568Y-156081D01*
X-88570Y-156494D01*
X-87500Y-156635D01*
X-86430Y-156494D01*
X-85432Y-156081D01*
X-84576Y-155424D01*
X-83919Y-154568D01*
X-83505Y-153570D01*
X-83365Y-152500D01*
X-83505Y-151430D01*
X-83919Y-150432D01*
X-84576Y-149576D01*
X-85432Y-148919D01*
X-86430Y-148505D01*
X-87500Y-148365D01*
D02*
G37*
G36*
X120287Y-153636D02*
X117868Y-156055D01*
X118293Y-156382D01*
X119255Y-156780D01*
X120287Y-156916D01*
X121319Y-156780D01*
X122280Y-156382D01*
X122706Y-156055D01*
X120287Y-153636D01*
D02*
G37*
G36*
X-159571Y-86273D02*
X-165369Y-92071D01*
X-161202Y-96238D01*
Y-114429D01*
X-161078Y-115053D01*
X-160725Y-115583D01*
X-131518Y-144789D01*
X-130989Y-145142D01*
X-130365Y-145267D01*
X-119302D01*
X-119038Y-146137D01*
X-118434Y-147267D01*
X-117621Y-148258D01*
X-116631Y-149071D01*
X-115500Y-149675D01*
X-114274Y-150047D01*
X-112999Y-150172D01*
X-111724Y-150047D01*
X-110497Y-149675D01*
X-109695Y-149246D01*
X-99870Y-159071D01*
X-100369Y-159571D01*
X-94571Y-165369D01*
X-88773Y-159571D01*
X-94571Y-153773D01*
X-97563Y-156764D01*
X-107388Y-146939D01*
X-106959Y-146137D01*
X-106588Y-144911D01*
X-106462Y-143635D01*
X-106588Y-142360D01*
X-106959Y-141134D01*
X-107564Y-140003D01*
X-108377Y-139013D01*
X-109367Y-138200D01*
X-110497Y-137596D01*
X-111724Y-137224D01*
X-112999Y-137098D01*
X-114274Y-137224D01*
X-115500Y-137596D01*
X-116631Y-138200D01*
X-117621Y-139013D01*
X-118434Y-140003D01*
X-119038Y-141134D01*
X-119302Y-142004D01*
X-129689D01*
X-157940Y-113753D01*
Y-96238D01*
X-153773Y-92071D01*
X-159571Y-86273D01*
D02*
G37*
G36*
X141500Y-153463D02*
X140225Y-153589D01*
X138998Y-153961D01*
X137868Y-154565D01*
X136878Y-155378D01*
X136065Y-156368D01*
X135461Y-157498D01*
X135089Y-158725D01*
X134963Y-160000D01*
X135089Y-161275D01*
X135461Y-162502D01*
X136065Y-163632D01*
X136878Y-164622D01*
X137868Y-165435D01*
X138998Y-166039D01*
X140225Y-166411D01*
X141500Y-166537D01*
X142775Y-166411D01*
X144002Y-166039D01*
X145132Y-165435D01*
X146122Y-164622D01*
X146935Y-163632D01*
X147539Y-162502D01*
X147911Y-161275D01*
X148037Y-160000D01*
X147911Y-158725D01*
X147539Y-157498D01*
X146935Y-156368D01*
X146122Y-155378D01*
X145132Y-154565D01*
X144002Y-153961D01*
X142775Y-153589D01*
X141500Y-153463D01*
D02*
G37*
G36*
X-130677Y-154776D02*
X-131952Y-154901D01*
X-133178Y-155273D01*
X-134308Y-155877D01*
X-135299Y-156691D01*
X-136112Y-157681D01*
X-136716Y-158811D01*
X-137088Y-160038D01*
X-137214Y-161313D01*
X-137088Y-162588D01*
X-136716Y-163814D01*
X-136112Y-164945D01*
X-135299Y-165935D01*
X-134308Y-166748D01*
X-133178Y-167352D01*
X-131952Y-167724D01*
X-130677Y-167850D01*
X-129401Y-167724D01*
X-128175Y-167352D01*
X-127045Y-166748D01*
X-126054Y-165935D01*
X-125241Y-164945D01*
X-124637Y-163814D01*
X-124265Y-162588D01*
X-124140Y-161313D01*
X-124265Y-160038D01*
X-124637Y-158811D01*
X-125241Y-157681D01*
X-126054Y-156691D01*
X-127045Y-155877D01*
X-128175Y-155273D01*
X-129401Y-154901D01*
X-130677Y-154776D01*
D02*
G37*
G36*
X-13300Y-169414D02*
Y-176150D01*
X-6564D01*
X-6655Y-175229D01*
X-7069Y-173862D01*
X-7743Y-172603D01*
X-8649Y-171499D01*
X-9753Y-170593D01*
X-11012Y-169920D01*
X-12379Y-169505D01*
X-13300Y-169414D01*
D02*
G37*
G36*
X-14300Y-169414D02*
X-15221Y-169505D01*
X-16588Y-169920D01*
X-17847Y-170593D01*
X-18951Y-171499D01*
X-19857Y-172603D01*
X-20530Y-173862D01*
X-20945Y-175229D01*
X-21036Y-176150D01*
X-14300D01*
Y-169414D01*
D02*
G37*
G36*
X14300Y-169414D02*
Y-176150D01*
X21036D01*
X20945Y-175229D01*
X20530Y-173862D01*
X19857Y-172603D01*
X18951Y-171499D01*
X17847Y-170593D01*
X16588Y-169920D01*
X15221Y-169505D01*
X14300Y-169414D01*
D02*
G37*
G36*
X13300Y-169414D02*
X12379Y-169505D01*
X11012Y-169920D01*
X9753Y-170593D01*
X8649Y-171499D01*
X7743Y-172603D01*
X7069Y-173862D01*
X6655Y-175229D01*
X6564Y-176150D01*
X13300D01*
Y-169414D01*
D02*
G37*
G36*
X-148354Y-172052D02*
X-149708Y-172185D01*
X-151010Y-172580D01*
X-152209Y-173221D01*
X-152872Y-173765D01*
X-148354Y-178283D01*
X-143836Y-173765D01*
X-144499Y-173221D01*
X-145699Y-172580D01*
X-147001Y-172185D01*
X-148354Y-172052D01*
D02*
G37*
G36*
X-143129Y-174472D02*
X-147647Y-178990D01*
X-143129Y-183509D01*
X-142585Y-182846D01*
X-141944Y-181646D01*
X-141549Y-180344D01*
X-141415Y-178990D01*
X-141549Y-177637D01*
X-141944Y-176335D01*
X-142585Y-175136D01*
X-143129Y-174472D01*
D02*
G37*
G36*
X-153579Y-174472D02*
X-154124Y-175136D01*
X-154765Y-176335D01*
X-155160Y-177637D01*
X-155293Y-178990D01*
X-155160Y-180344D01*
X-154765Y-181646D01*
X-154124Y-182846D01*
X-153579Y-183509D01*
X-149061Y-178990D01*
X-153579Y-174472D01*
D02*
G37*
G36*
X13300Y-177150D02*
X6564D01*
X6655Y-178071D01*
X7069Y-179438D01*
X7743Y-180697D01*
X8649Y-181801D01*
X9753Y-182707D01*
X11012Y-183380D01*
X12379Y-183795D01*
X13300Y-183886D01*
Y-177150D01*
D02*
G37*
G36*
X-14300Y-177150D02*
X-21036D01*
X-20945Y-178071D01*
X-20530Y-179438D01*
X-19857Y-180697D01*
X-18951Y-181801D01*
X-17847Y-182707D01*
X-16588Y-183380D01*
X-15221Y-183795D01*
X-14300Y-183886D01*
Y-177150D01*
D02*
G37*
G36*
X-6564D02*
X-13300D01*
Y-183886D01*
X-12379Y-183795D01*
X-11012Y-183380D01*
X-9753Y-182707D01*
X-8649Y-181801D01*
X-7743Y-180697D01*
X-7069Y-179438D01*
X-6655Y-178071D01*
X-6564Y-177150D01*
D02*
G37*
G36*
X21036Y-177150D02*
X14300D01*
Y-183886D01*
X15221Y-183795D01*
X16588Y-183380D01*
X17847Y-182707D01*
X18951Y-181801D01*
X19857Y-180697D01*
X20530Y-179438D01*
X20945Y-178071D01*
X21036Y-177150D01*
D02*
G37*
G36*
X-148354Y-179698D02*
X-152872Y-184216D01*
X-152209Y-184760D01*
X-151010Y-185401D01*
X-149708Y-185796D01*
X-148354Y-185929D01*
X-147001Y-185796D01*
X-145699Y-185401D01*
X-144499Y-184760D01*
X-143836Y-184216D01*
X-148354Y-179698D01*
D02*
G37*
G36*
X113216Y-181747D02*
X111940Y-181873D01*
X110714Y-182245D01*
X109584Y-182849D01*
X108593Y-183662D01*
X107780Y-184653D01*
X107176Y-185783D01*
X106804Y-187009D01*
X106679Y-188284D01*
X106804Y-189560D01*
X107176Y-190786D01*
X107780Y-191916D01*
X108593Y-192907D01*
X109584Y-193720D01*
X110714Y-194324D01*
X111940Y-194696D01*
X113216Y-194821D01*
X114491Y-194696D01*
X115717Y-194324D01*
X116848Y-193720D01*
X117838Y-192907D01*
X118651Y-191916D01*
X119255Y-190786D01*
X119627Y-189560D01*
X119753Y-188284D01*
X119627Y-187009D01*
X119255Y-185783D01*
X118651Y-184653D01*
X117838Y-183662D01*
X116848Y-182849D01*
X115717Y-182245D01*
X114491Y-181873D01*
X113216Y-181747D01*
D02*
G37*
G36*
X-13300Y-189114D02*
Y-195850D01*
X-6564D01*
X-6655Y-194929D01*
X-7069Y-193562D01*
X-7743Y-192303D01*
X-8649Y-191199D01*
X-9753Y-190293D01*
X-11012Y-189620D01*
X-12379Y-189205D01*
X-13300Y-189114D01*
D02*
G37*
G36*
X-14300Y-189114D02*
X-15221Y-189205D01*
X-16588Y-189620D01*
X-17847Y-190293D01*
X-18951Y-191199D01*
X-19857Y-192303D01*
X-20530Y-193562D01*
X-20945Y-194929D01*
X-21036Y-195850D01*
X-14300D01*
Y-189114D01*
D02*
G37*
G36*
X14300Y-189114D02*
Y-195850D01*
X21036D01*
X20945Y-194929D01*
X20530Y-193562D01*
X19857Y-192303D01*
X18951Y-191199D01*
X17847Y-190293D01*
X16588Y-189620D01*
X15221Y-189205D01*
X14300Y-189114D01*
D02*
G37*
G36*
X13300Y-189114D02*
X12379Y-189205D01*
X11012Y-189620D01*
X9753Y-190293D01*
X8649Y-191199D01*
X7743Y-192303D01*
X7069Y-193562D01*
X6655Y-194929D01*
X6564Y-195850D01*
X13300D01*
Y-189114D01*
D02*
G37*
G36*
X55000Y-191369D02*
X54060Y-191493D01*
X53184Y-191855D01*
X52432Y-192432D01*
X51855Y-193184D01*
X51493Y-194060D01*
X51369Y-195000D01*
X51493Y-195940D01*
X51855Y-196816D01*
X52432Y-197568D01*
X53184Y-198145D01*
X54060Y-198507D01*
X55000Y-198631D01*
X55940Y-198507D01*
X56815Y-198145D01*
X57568Y-197568D01*
X58145Y-196816D01*
X58507Y-195940D01*
X58631Y-195000D01*
X58507Y-194060D01*
X58145Y-193184D01*
X57568Y-192432D01*
X56815Y-191855D01*
X55940Y-191493D01*
X55000Y-191369D01*
D02*
G37*
G36*
X13300Y-196850D02*
X6564D01*
X6655Y-197771D01*
X7069Y-199138D01*
X7743Y-200397D01*
X8649Y-201501D01*
X9753Y-202407D01*
X11012Y-203081D01*
X12379Y-203495D01*
X13300Y-203586D01*
Y-196850D01*
D02*
G37*
G36*
X-14300Y-196850D02*
X-21036D01*
X-20945Y-197771D01*
X-20530Y-199138D01*
X-19857Y-200397D01*
X-18951Y-201501D01*
X-17847Y-202407D01*
X-16588Y-203081D01*
X-15221Y-203495D01*
X-14300Y-203586D01*
Y-196850D01*
D02*
G37*
G36*
X-6564D02*
X-13300D01*
Y-203586D01*
X-12379Y-203495D01*
X-11012Y-203081D01*
X-9753Y-202407D01*
X-8649Y-201501D01*
X-7743Y-200397D01*
X-7069Y-199138D01*
X-6655Y-197771D01*
X-6564Y-196850D01*
D02*
G37*
G36*
X21036Y-196850D02*
X14300D01*
Y-203586D01*
X15221Y-203495D01*
X16588Y-203081D01*
X17847Y-202407D01*
X18951Y-201501D01*
X19857Y-200397D01*
X20530Y-199138D01*
X20945Y-197771D01*
X21036Y-196850D01*
D02*
G37*
G36*
X86837Y-197492D02*
X84505Y-197862D01*
X82736Y-198436D01*
X88288Y-211839D01*
X101690Y-206287D01*
X100846Y-204631D01*
X99459Y-202720D01*
X97789Y-201051D01*
X95879Y-199663D01*
X93775Y-198591D01*
X91530Y-197862D01*
X89198Y-197492D01*
X86837Y-197492D01*
D02*
G37*
G36*
X-86837D02*
X-89198Y-197492D01*
X-91530Y-197862D01*
X-93775Y-198591D01*
X-95879Y-199663D01*
X-97789Y-201051D01*
X-99459Y-202720D01*
X-100846Y-204631D01*
X-101690Y-206287D01*
X-88288Y-211839D01*
X-82736Y-198436D01*
X-84505Y-197862D01*
X-86837Y-197492D01*
D02*
G37*
G36*
X81812Y-198819D02*
X80155Y-199663D01*
X78245Y-201051D01*
X76576Y-202720D01*
X75188Y-204631D01*
X74116Y-206734D01*
X73387Y-208980D01*
X73017Y-211312D01*
X73017Y-213673D01*
X73387Y-216005D01*
X73961Y-217773D01*
X87364Y-212222D01*
X81812Y-198819D01*
D02*
G37*
G36*
X-81812Y-198819D02*
X-87364Y-212222D01*
X-73961Y-217773D01*
X-73387Y-216005D01*
X-73017Y-213673D01*
X-73017Y-211312D01*
X-73387Y-208980D01*
X-74116Y-206734D01*
X-75188Y-204631D01*
X-76576Y-202720D01*
X-78245Y-201051D01*
X-80155Y-199663D01*
X-81812Y-198819D01*
D02*
G37*
G36*
X37800Y-211267D02*
X36457Y-211399D01*
X35166Y-211791D01*
X33976Y-212427D01*
X32933Y-213283D01*
X32077Y-214326D01*
X31441Y-215516D01*
X31049Y-216807D01*
X30917Y-218150D01*
X31049Y-219493D01*
X31441Y-220784D01*
X32077Y-221974D01*
X32933Y-223017D01*
X33976Y-223873D01*
X35166Y-224509D01*
X36457Y-224901D01*
X37800Y-225033D01*
X39143Y-224901D01*
X40434Y-224509D01*
X41624Y-223873D01*
X42667Y-223017D01*
X43523Y-221974D01*
X44159Y-220784D01*
X44551Y-219493D01*
X44683Y-218150D01*
X44551Y-216807D01*
X44159Y-215516D01*
X43523Y-214326D01*
X42667Y-213283D01*
X41624Y-212427D01*
X40434Y-211791D01*
X39143Y-211399D01*
X37800Y-211267D01*
D02*
G37*
G36*
X10200D02*
X8857Y-211399D01*
X7566Y-211791D01*
X6376Y-212427D01*
X5333Y-213283D01*
X4477Y-214326D01*
X3841Y-215516D01*
X3449Y-216807D01*
X3317Y-218150D01*
X3449Y-219493D01*
X3841Y-220784D01*
X4477Y-221974D01*
X5333Y-223017D01*
X6376Y-223873D01*
X7566Y-224509D01*
X8857Y-224901D01*
X10200Y-225033D01*
X11543Y-224901D01*
X12834Y-224509D01*
X14024Y-223873D01*
X15067Y-223017D01*
X15923Y-221974D01*
X16559Y-220784D01*
X16951Y-219493D01*
X17083Y-218150D01*
X16951Y-216807D01*
X16559Y-215516D01*
X15923Y-214326D01*
X15067Y-213283D01*
X14024Y-212427D01*
X12834Y-211791D01*
X11543Y-211399D01*
X10200Y-211267D01*
D02*
G37*
G36*
X-102073Y-207211D02*
X-102648Y-208980D01*
X-103017Y-211312D01*
X-103017Y-213673D01*
X-102648Y-216005D01*
X-101918Y-218250D01*
X-100846Y-220354D01*
X-99458Y-222264D01*
X-97789Y-223934D01*
X-95879Y-225321D01*
X-94222Y-226166D01*
X-88671Y-212763D01*
X-102073Y-207211D01*
D02*
G37*
G36*
X102073Y-207211D02*
X88670Y-212763D01*
X94222Y-226166D01*
X95879Y-225321D01*
X97789Y-223934D01*
X99458Y-222264D01*
X100846Y-220354D01*
X101918Y-218250D01*
X102648Y-216005D01*
X103017Y-213673D01*
X103017Y-211312D01*
X102648Y-208980D01*
X102073Y-207211D01*
D02*
G37*
G36*
X87747Y-213146D02*
X74344Y-218697D01*
X75188Y-220354D01*
X76576Y-222264D01*
X78245Y-223934D01*
X80155Y-225321D01*
X82259Y-226393D01*
X84505Y-227123D01*
X86837Y-227492D01*
X89198Y-227492D01*
X91530Y-227123D01*
X93298Y-226548D01*
X87747Y-213146D01*
D02*
G37*
G36*
X-87747D02*
X-93298Y-226548D01*
X-91530Y-227123D01*
X-89198Y-227492D01*
X-86837Y-227492D01*
X-84505Y-227123D01*
X-82259Y-226393D01*
X-80155Y-225321D01*
X-78245Y-223934D01*
X-76576Y-222264D01*
X-75188Y-220354D01*
X-74344Y-218697D01*
X-87747Y-213146D01*
D02*
G37*
G36*
X37800Y-230967D02*
X36457Y-231099D01*
X35166Y-231491D01*
X33976Y-232127D01*
X32933Y-232983D01*
X32077Y-234026D01*
X31441Y-235216D01*
X31049Y-236507D01*
X30917Y-237850D01*
X31049Y-239193D01*
X31441Y-240484D01*
X32077Y-241674D01*
X32933Y-242717D01*
X33976Y-243573D01*
X35166Y-244209D01*
X36457Y-244601D01*
X37800Y-244733D01*
X39143Y-244601D01*
X40434Y-244209D01*
X41624Y-243573D01*
X42667Y-242717D01*
X43523Y-241674D01*
X44159Y-240484D01*
X44551Y-239193D01*
X44683Y-237850D01*
X44551Y-236507D01*
X44159Y-235216D01*
X43523Y-234026D01*
X42667Y-232983D01*
X41624Y-232127D01*
X40434Y-231491D01*
X39143Y-231099D01*
X37800Y-230967D01*
D02*
G37*
G36*
X10200D02*
X8857Y-231099D01*
X7566Y-231491D01*
X6376Y-232127D01*
X5333Y-232983D01*
X4477Y-234026D01*
X3841Y-235216D01*
X3449Y-236507D01*
X3317Y-237850D01*
X3449Y-239193D01*
X3841Y-240484D01*
X4477Y-241674D01*
X5333Y-242717D01*
X6376Y-243573D01*
X7566Y-244209D01*
X8857Y-244601D01*
X10200Y-244733D01*
X11543Y-244601D01*
X12834Y-244209D01*
X14024Y-243573D01*
X15067Y-242717D01*
X15923Y-241674D01*
X16559Y-240484D01*
X16951Y-239193D01*
X17083Y-237850D01*
X16951Y-236507D01*
X16559Y-235216D01*
X15923Y-234026D01*
X15067Y-232983D01*
X14024Y-232127D01*
X12834Y-231491D01*
X11543Y-231099D01*
X10200Y-230967D01*
D02*
G37*
%LPD*%
D13*
X117033Y70219D02*
G03*
X78563Y111590I-117033J-70255D01*
G01*
X136501Y-36D02*
G03*
X117033Y70219I-136501J0D01*
G01*
X117158Y70523D02*
G03*
X117033Y70219I303J-303D01*
G01*
X115348Y159632D02*
G03*
X115500Y160000I-369J368D01*
G01*
X115347Y159631D02*
G03*
X115348Y159632I-369J369D01*
G01*
X-124125Y-56828D02*
G03*
X-55405Y-124786I124125J56793D01*
G01*
X-136501Y0D02*
G03*
X-124125Y-56828I136501J-36D01*
G01*
X-124125D02*
G03*
X-124472Y-56972I0J-491D01*
G01*
X-55000Y-125765D02*
G03*
X-55405Y-124786I-1383J0D01*
G01*
X-37800Y-216342D02*
G03*
X-40729Y-209271I-10000J0D01*
G01*
X70465Y-116942D02*
G03*
X136018Y-11502I-70465J116906D01*
G01*
X70465Y-116942D02*
G03*
X70682Y-117467I742J0D01*
G01*
X160200Y-11450D02*
G03*
X161084Y-13584I3018J0D01*
G01*
X136018Y-11502D02*
G03*
X136501Y-36I-136018J11466D01*
G01*
X136143Y-11450D02*
G03*
X136018Y-11502I0J-176D01*
G01*
X78563Y111590D02*
G03*
X38344Y130969I-78563J-111626D01*
G01*
X78649Y111797D02*
G03*
X78563Y111590I208J-207D01*
G01*
X78649Y111798D02*
G03*
X78649Y111797I208J-208D01*
G01*
X126652Y159800D02*
G03*
X129581Y166871I-7071J7071D01*
G01*
X35000Y231500D02*
G03*
X25000Y221500I0J-10000D01*
G01*
X49500Y222158D02*
G03*
X40157Y231500I-9342J0D01*
G01*
X38344Y130969D02*
G03*
X-136501Y0I-38344J-131004D01*
G01*
X38344Y130969D02*
G03*
X38500Y131344I-375J375D01*
G01*
Y157858D02*
G03*
X35571Y164929I-10000J0D01*
G01*
X29929Y170571D02*
G03*
X22858Y173500I-7071J-7071D01*
G01*
X22071Y180571D02*
G03*
X25000Y187642I-7071J7071D01*
G01*
X-147555Y107735D02*
G03*
X-146720Y105720I2849J0D01*
G01*
X-156358Y0D02*
G03*
X-163429Y-2929I0J-10000D01*
G01*
X15000Y173500D02*
X22071Y180571D01*
X15000Y173500D02*
X22858D01*
X15000Y173500D02*
Y173500D01*
X5000Y173500D02*
X15000D01*
X117158Y70523D02*
X153568Y106932D01*
X148000Y112500D02*
X154000Y118500D01*
X115347Y159631D02*
X115348Y159632D01*
X108553Y152837D02*
X115347Y159631D01*
X-50000Y227000D02*
X-50000Y227000D01*
X-50000Y222158D02*
Y227000D01*
X-97063Y-159571D02*
X-94571D01*
X-112999Y-143635D02*
X-97063Y-159571D01*
X-130365Y-143635D02*
X-112999D01*
X-159571Y-114429D02*
X-130365Y-143635D01*
X-159571Y-114429D02*
Y-92071D01*
X-152500Y-85000D02*
X-124472Y-56972D01*
X-55000Y-195000D02*
X-40729Y-209271D01*
X-55000Y-195000D02*
Y-125765D01*
X-37800Y-218150D02*
Y-216342D01*
X-10200Y-237850D02*
Y-218150D01*
X-37800Y-237850D02*
Y-218150D01*
X-10200D01*
X70682Y-117467D02*
X113216Y-160000D01*
X136143Y-11450D02*
X160200D01*
X161084Y-13584D02*
X175200Y-27700D01*
X114121Y147269D02*
X126652Y159800D01*
X78649Y111798D02*
X114121Y147269D01*
X78649Y111797D02*
X78649Y111798D01*
X129581Y166871D02*
Y173581D01*
X35000Y231500D02*
X40157D01*
X25000Y217500D02*
Y221500D01*
Y187642D02*
Y217500D01*
X38500Y131344D02*
Y157858D01*
X29929Y170571D02*
X35571Y164929D01*
X-146720Y105720D02*
X-115000Y74000D01*
X-156358Y0D02*
X-136501D01*
X-175500Y-15000D02*
X-163429Y-2929D01*
D15*
X153568Y106932D02*
D03*
X150784Y109716D02*
D03*
X148000Y112500D02*
D03*
X145216Y115284D02*
D03*
X114121Y147269D02*
D03*
X111337Y150053D02*
D03*
X108553Y152837D02*
D03*
X105769Y155621D02*
D03*
D16*
X147339Y93465D02*
D03*
X131888Y109194D02*
D03*
X110850Y136760D02*
D03*
X95260Y152350D02*
D03*
D17*
X49500Y222158D02*
D03*
X-50000D02*
D03*
D18*
X43595Y216843D02*
D03*
X55405D02*
D03*
X-55905D02*
D03*
X-44094D02*
D03*
D25*
X-152500Y-85000D02*
D03*
X-87500Y-152500D02*
D03*
D48*
X160200Y11050D02*
D03*
X160200Y-11450D02*
D03*
X157700Y-200D02*
D03*
X175200Y-27700D02*
D03*
X177700Y27300D02*
D03*
D49*
X187700Y-17700D02*
D03*
X187700Y17300D02*
D03*
X10200Y-237850D02*
D03*
X37800D02*
D03*
Y-218150D02*
D03*
X10200D02*
D03*
X-13800Y-196350D02*
D03*
X13800D02*
D03*
X13800Y-176650D02*
D03*
X-13800D02*
D03*
X-37800Y-237850D02*
D03*
X-10200D02*
D03*
Y-218150D02*
D03*
X-37800D02*
D03*
D50*
X212200Y-200D02*
D03*
X225200Y-22700D02*
D03*
X225200Y22300D02*
D03*
D51*
X222700Y32300D02*
D03*
D52*
X-159571Y-92071D02*
D03*
X-94571Y-159571D02*
D03*
D53*
X95583Y220058D02*
D03*
X80451Y204926D02*
D03*
X97903Y216587D02*
D03*
X78132Y208398D02*
D03*
X98717Y212492D02*
D03*
X77317Y212492D02*
D03*
X97903Y208398D02*
D03*
X78132Y216587D02*
D03*
X95583Y204926D02*
D03*
X80451Y220058D02*
D03*
X92112Y202607D02*
D03*
X83922Y222378D02*
D03*
X88017Y201792D02*
D03*
X88017Y223192D02*
D03*
X92112Y222378D02*
D03*
X83922Y202607D02*
D03*
X-88017Y223192D02*
D03*
X-88017Y201792D02*
D03*
X-83922Y222378D02*
D03*
X-92112Y202607D02*
D03*
X-80451Y220058D02*
D03*
X-95583Y204926D02*
D03*
X-78132Y216587D02*
D03*
X-97903Y208398D02*
D03*
X-77317Y212492D02*
D03*
X-98717Y212492D02*
D03*
X-78132Y208398D02*
D03*
X-97903Y216587D02*
D03*
X-80451Y204926D02*
D03*
X-95583Y220058D02*
D03*
X-92112Y222378D02*
D03*
X-83922Y202607D02*
D03*
X-95583Y-220058D02*
D03*
X-80451Y-204926D02*
D03*
X-97903Y-216587D02*
D03*
X-78132Y-208398D02*
D03*
X-98717Y-212492D02*
D03*
X-77317D02*
D03*
X-97903Y-208398D02*
D03*
X-78132Y-216587D02*
D03*
X-95583Y-204926D02*
D03*
X-80451Y-220058D02*
D03*
X-92112Y-202607D02*
D03*
X-83922Y-222378D02*
D03*
X-88017Y-201792D02*
D03*
Y-223192D02*
D03*
X-92112Y-222378D02*
D03*
X-83922Y-202607D02*
D03*
X88017Y-223192D02*
D03*
Y-201792D02*
D03*
X83922Y-222378D02*
D03*
X92112Y-202607D02*
D03*
X80451Y-220058D02*
D03*
X95583Y-204926D02*
D03*
X78132Y-216587D02*
D03*
X97903Y-208398D02*
D03*
X77317Y-212492D02*
D03*
X98717D02*
D03*
X78132Y-208398D02*
D03*
X97903Y-216587D02*
D03*
X80451Y-204926D02*
D03*
X95583Y-220058D02*
D03*
X92112Y-222378D02*
D03*
X83922Y-202607D02*
D03*
X-220058Y95583D02*
D03*
X-204926Y80451D02*
D03*
X-216587Y97903D02*
D03*
X-208398Y78132D02*
D03*
X-212492Y98717D02*
D03*
Y77317D02*
D03*
X-208398Y97903D02*
D03*
X-216587Y78132D02*
D03*
X-204926Y95583D02*
D03*
X-220058Y80451D02*
D03*
X-202607Y92112D02*
D03*
X-222378Y83922D02*
D03*
X-201792Y88017D02*
D03*
X-223192D02*
D03*
X-222378Y92112D02*
D03*
X-202607Y83922D02*
D03*
X223152Y88944D02*
D03*
X201833Y87091D02*
D03*
X222695Y84794D02*
D03*
X202289Y91241D02*
D03*
X220685Y81134D02*
D03*
X204300Y94900D02*
D03*
X217427Y78523D02*
D03*
X207557Y97511D02*
D03*
X213419Y77357D02*
D03*
X211566Y98677D02*
D03*
X209269Y77814D02*
D03*
X215716Y98220D02*
D03*
X205610Y79825D02*
D03*
X219375Y96210D02*
D03*
X221986Y92952D02*
D03*
X202998Y83082D02*
D03*
X220058Y-95583D02*
D03*
X204926Y-80451D02*
D03*
X216587Y-97903D02*
D03*
X208398Y-78132D02*
D03*
X212492Y-98717D02*
D03*
X212492Y-77317D02*
D03*
X208398Y-97903D02*
D03*
X216587Y-78132D02*
D03*
X204926Y-95583D02*
D03*
X220058Y-80451D02*
D03*
X202607Y-92112D02*
D03*
X222378Y-83922D02*
D03*
X201792Y-88017D02*
D03*
X223192Y-88017D02*
D03*
X222378Y-92112D02*
D03*
X202607Y-83922D02*
D03*
X-223192Y-88017D02*
D03*
X-201792D02*
D03*
X-222378Y-83922D02*
D03*
X-202607Y-92112D02*
D03*
X-220058Y-80451D02*
D03*
X-204926Y-95583D02*
D03*
X-216587Y-78132D02*
D03*
X-208398Y-97903D02*
D03*
X-212492Y-77317D02*
D03*
Y-98717D02*
D03*
X-208398Y-78132D02*
D03*
X-216587Y-97903D02*
D03*
X-204926Y-80451D02*
D03*
X-220058Y-95583D02*
D03*
X-222378Y-92112D02*
D03*
X-202607Y-83922D02*
D03*
D54*
X88017Y212492D02*
D03*
X-88017D02*
D03*
Y-212492D02*
D03*
X88017D02*
D03*
X-212492Y88017D02*
D03*
X212492D02*
D03*
Y-88017D02*
D03*
X-212492D02*
D03*
D55*
X0Y-147000D02*
D03*
X55000Y-195000D02*
D03*
X-55000D02*
D03*
D56*
X-24390Y217500D02*
D03*
X11220Y217500D02*
D03*
D57*
X-10610D02*
D03*
X25000D02*
D03*
D58*
X143500Y159661D02*
D03*
X143500Y187500D02*
D03*
X115661Y187500D02*
D03*
X158161Y146000D02*
D03*
X186000Y146000D02*
D03*
X186000Y118161D02*
D03*
D59*
X129581Y173581D02*
D03*
X113216Y-188284D02*
D03*
X141500Y-160000D02*
D03*
X160500Y-141000D02*
D03*
X188784Y-112716D02*
D03*
X-144735Y-111899D02*
D03*
X-162413Y-129577D02*
D03*
X-180090Y-147254D02*
D03*
X-148354Y-178990D02*
D03*
X-130677Y-161313D02*
D03*
X-112999Y-143635D02*
D03*
X172081Y132081D02*
D03*
D60*
X-175500Y-0D02*
D03*
D61*
X-175500Y-15000D02*
D03*
D62*
X-175500Y15000D02*
D03*
D63*
X-195500Y0D02*
D03*
D64*
X-230500Y-15000D02*
D03*
X-210500Y15000D02*
D03*
D65*
X113216Y-160000D02*
D03*
X120287Y-152929D02*
D03*
X160500Y-112716D02*
D03*
X167571Y-105645D02*
D03*
D66*
X-174002Y134182D02*
D03*
X-142182Y166001D02*
D03*
D67*
X-147555Y107735D02*
D03*
X-115735Y139555D02*
D03*
X-151090Y174910D02*
D03*
X-182910Y143090D02*
D03*
X-165232Y125412D02*
D03*
X-133412Y157232D02*
D03*
D68*
X-150394Y122434D02*
D03*
D69*
X-15000Y163500D02*
D03*
X-15000Y173500D02*
D03*
X-5000Y163500D02*
D03*
X-5000Y173500D02*
D03*
X5000Y163500D02*
D03*
X5000Y173500D02*
D03*
X15000Y163500D02*
D03*
D70*
X15000Y173500D02*
D03*
D71*
X117820Y-54940D02*
D03*
X122160Y-44463D02*
D03*
X129505Y-11330D02*
D03*
X130000Y0D02*
D03*
X125570Y-33647D02*
D03*
X128025Y-22574D02*
D03*
X112583Y-65000D02*
D03*
X129505Y11330D02*
D03*
X91924Y-91924D02*
D03*
X83562Y-99586D02*
D03*
X99586Y-83562D02*
D03*
X-44463Y-122160D02*
D03*
X-55386Y-118075D02*
D03*
X-65000Y-112583D02*
D03*
X-129505Y-11330D02*
D03*
X-128025Y-22574D02*
D03*
X-125570Y-33647D02*
D03*
X-122160Y-44463D02*
D03*
X-117820Y-54940D02*
D03*
X-112583Y-65000D02*
D03*
X-106490Y-74565D02*
D03*
X-99586Y-83562D02*
D03*
X-92267Y-92572D02*
D03*
X-83562Y-99586D02*
D03*
X-74565Y-106490D02*
D03*
X-33647Y-125570D02*
D03*
X-22574Y-128025D02*
D03*
X-11330Y-129505D02*
D03*
X0Y-130000D02*
D03*
X11330Y-129505D02*
D03*
X22574Y-128025D02*
D03*
X33647Y-125570D02*
D03*
X44463Y-122160D02*
D03*
X54940Y-117820D02*
D03*
X65000Y-112583D02*
D03*
X74565Y-106490D02*
D03*
X106490Y-74565D02*
D03*
X128025Y22574D02*
D03*
X125570Y33647D02*
D03*
X122160Y44463D02*
D03*
X117820Y54940D02*
D03*
X112583Y65000D02*
D03*
X106490Y74565D02*
D03*
X99586Y83562D02*
D03*
X91924Y91924D02*
D03*
X83562Y99586D02*
D03*
X74565Y106490D02*
D03*
X65000Y112583D02*
D03*
X54940Y117820D02*
D03*
X44463Y122160D02*
D03*
X33647Y125570D02*
D03*
X22574Y128025D02*
D03*
X11330Y129505D02*
D03*
X0Y130000D02*
D03*
X-11330Y129505D02*
D03*
X-22574Y128025D02*
D03*
X-33647Y125570D02*
D03*
X-44463Y122160D02*
D03*
X-54940Y117820D02*
D03*
X-65000Y112583D02*
D03*
X-74565Y106490D02*
D03*
X-83562Y99586D02*
D03*
X-130000Y0D02*
D03*
X-91924Y91924D02*
D03*
X-99317Y83316D02*
D03*
X-106490Y74565D02*
D03*
X-112583Y65000D02*
D03*
X-117820Y54940D02*
D03*
X-122160Y44463D02*
D03*
X-125570Y33647D02*
D03*
X-128025Y22574D02*
D03*
X-129505Y11330D02*
D03*
X154000Y118500D02*
D03*
X115500Y160000D02*
D03*
X-50000Y227000D02*
D03*
M02*
