M48
;Layer_Color=6321
;FILE_FORMAT=2:5
INCH,LZ
;TYPE=PLATED
T1F00S00C0.02000
T2F00S00C0.02800
T3F00S00C0.03504
T4F00S00C0.03800
T5F00S00C0.04000
T6F00S00C0.04700
T7F00S00C0.04724
T8F00S00C0.05000
T9F00S00C0.05906
T10F00S00C0.06300
T11F00S00C0.06693
T12F00S00C0.07500
T13F00S00C0.07913
T14F00S00C0.08268
T15F00S00C0.10236
T16F00S00C0.11811
T17F00S00C0.14800
;TYPE=NON_PLATED
T18F00S00C0.06500
T19F00S00C0.08000
%
T01
X-0095583Y-0220058
X-0097903Y-0216587
X-0098717Y-0212492
X-0097903Y-0208398
X-0095583Y-0204926
X-0092112Y-0202607
X-0088017Y-0201792
X-0083922Y-0202607
X-0080451Y-0204926
X-0078132Y-0208398
X-0077317Y-0212492
X-0078132Y-0216587
X-0080451Y-0220058
X-0083922Y-0222378
X-0088017Y-0223192
X-0092112Y-0222378
X-0044463Y-012216
X-0033647Y-012557
X-0022574Y-0128025
X-001133Y-0129505
X0Y-013
X001133Y-0129505
X0022574Y-0128025
X0033647Y-012557
X0044463Y-012216
X0080451Y-0204926
X0078132Y-0208398
X0077317Y-0212492
X0078132Y-0216587
X0080451Y-0220058
X0083922Y-0222378
X0088017Y-0223192
X0092112Y-0222378
X0095583Y-0220058
X0097903Y-0216587
X0098717Y-0212492
X0097903Y-0208398
X0095583Y-0204926
X0092112Y-0202607
X0088017Y-0201792
X0083922Y-0202607
X0112583Y-0065
X011782Y-005494
X012216Y-0044463
X012557Y-0033647
X0128025Y-0022574
X0129505Y-001133
X013Y0
X0129505Y001133
X0128025Y0022574
X012557Y0033647
X0204926Y-0080451
X0202607Y-0083922
X0201792Y-0088017
X0202607Y-0092112
X0204926Y-0095583
X0208398Y-0097903
X0212492Y-0098717
X0216587Y-0097903
X0220058Y-0095583
X0222378Y-0092112
X0223192Y-0088017
X0222378Y-0083922
X0220058Y-0080451
X0216587Y-0078132
X0212492Y-0077317
X0208398Y-0078132
X010649Y-0074565
X0099586Y-0083562
X0091924Y-0091924
X0083562Y-0099586
X0074565Y-010649
X0065Y-0112583
X005494Y-011782
X-0055386Y-0118075
X-0065Y-0112583
X-0074565Y-010649
X-0083562Y-0099586
X-0092267Y-0092572
X-0099586Y-0083562
X-010649Y-0074565
X-0112583Y-0065
X-011782Y-005494
X-012216Y-0044463
X-012557Y-0033647
X-0128025Y-0022574
X-0129505Y-001133
X-013Y0
X-0129505Y001133
X-0128025Y0022574
X-012557Y0033647
X-0204926Y-0080451
X-0208398Y-0078132
X-0212492Y-0077317
X-0216587Y-0078132
X-0220058Y-0080451
X-0222378Y-0083922
X-0223192Y-0088017
X-0222378Y-0092112
X-0220058Y-0095583
X-0216587Y-0097903
X-0212492Y-0098717
X-0208398Y-0097903
X-0204926Y-0095583
X-0202607Y-0092112
X-0201792Y-0088017
X-0202607Y-0083922
X-0204926Y0080451
X-0202607Y0083922
X-0201792Y0088017
X-0202607Y0092112
X-0204926Y0095583
X-0208398Y0097903
X-0212492Y0098717
X-0216587Y0097903
X-0220058Y0095583
X-0222378Y0092112
X-0223192Y0088017
X-0222378Y0083922
X-0220058Y0080451
X-0216587Y0078132
X-0212492Y0077317
X-0208398Y0078132
X-010649Y0074565
X-0112583Y0065
X-011782Y005494
X-012216Y0044463
X-0099317Y0083316
X-0091924Y0091924
X-0083562Y0099586
X-0074565Y010649
X-0065Y0112583
X-005494Y011782
X-0044463Y012216
X-0033647Y012557
X-0022574Y0128025
X-001133Y0129505
X0Y013
X001133Y0129505
X0022574Y0128025
X0033647Y012557
X0044463Y012216
X005494Y011782
X0065Y0112583
X0074565Y010649
X0083562Y0099586
X0091924Y0091924
X0099586Y0083562
X010649Y0074565
X0112583Y0065
X011782Y005494
X012216Y0044463
X020561Y0079825
X0209269Y0077814
X0213419Y0077357
X0217427Y0078523
X0220685Y0081134
X0222695Y0084794
X0223152Y0088944
X0221986Y0092952
X0219375Y009621
X0215716Y009822
X0211566Y0098677
X0207557Y0097511
X02043Y00949
X0202289Y0091241
X0201833Y0087091
X0202998Y0083082
X0095583Y0204926
X0092112Y0202607
X0088017Y0201792
X0083922Y0202607
X0080451Y0204926
X0078132Y0208398
X0077317Y0212492
X0078132Y0216587
X0080451Y0220058
X0083922Y0222378
X0088017Y0223192
X0092112Y0222378
X0095583Y0220058
X0097903Y0216587
X0098717Y0212492
X0097903Y0208398
X-0078132Y0208398
X-0077317Y0212492
X-0078132Y0216587
X-0080451Y0220058
X-0083922Y0222378
X-0088017Y0223192
X-0092112Y0222378
X-0095583Y0220058
X-0097903Y0216587
X-0098717Y0212492
X-0097903Y0208398
X-0095583Y0204926
X-0092112Y0202607
X-0088017Y0201792
X-0083922Y0202607
X-0080451Y0204926
T02
X0154Y01185
X01155Y016
X-005Y0227
T03
X0113216Y-016
X0120287Y-0152929
X01605Y-0112716
X0167571Y-0105645
T04
X-0015Y01635
X-0005Y01635
X-0005Y01735
X0005Y01735
X0005Y01635
X0015
X0015Y01735
X-0015
T05
X-0094571Y-0159571
X-00875Y-01525
X-0055Y-0195
X0Y-0147
X0055Y-0195
X-01525Y-0085
X-0159571Y-0092071
T06
X01752Y-00277
X01602Y-001145
X01577Y-00002
X01602Y001105
X01777Y00273
T07
X-002439Y02175
X-001061Y02175
X001122
X0025
T08
X-01955Y0
X-01755Y-0
T09
X-0148354Y-017899
X-0130677Y-0161313
X-0112999Y-0143635
X-0162413Y-0129577
X-018009Y-0147254
X-0144735Y-0111899
X-0147555Y0107735
X-0165232Y0125412
X-018291Y014309
X-0133412Y0157232
X-0115735Y0139555
X-015109Y017491
T10
X01877Y-00177
X01877Y00173
X02227Y00323
X-01755Y0015
X-01755Y-0015
X-02305
X-02105Y0015
T11
X0129581Y0173581
X0172081Y0132081
T12
X-00378Y-023785
Y-021815
X-00102
Y-023785
X00102
Y-021815
X00138Y-019635
X00138Y-017665
X-00138
X-00138Y-019635
X00378Y-021815
Y-023785
T13
X0113216Y-0188284
X01415Y-016
X01605Y-0141
X0188784Y-0112716
T14
X-0115978Y-0114878
T15
X0115661Y01875
X01435Y01875
X01435Y0159661
X0158161Y0146
X0186Y0146
X0186Y0118161
T16
X-0150394Y0122434
T17
X-0088017Y-0212492
X0088017
X0212492Y-0088017
X-0212492
Y0088017
X0212492
X0088017Y0212492
X-0088017
T18
X02252Y-00227
X02122Y-00002
X02252Y00223
T19
X-0174002Y0134182
X-0142182Y0166001
M30
