G04*
G04 #@! TF.GenerationSoftware,Altium Limited,Altium Designer,20.2.6 (244)*
G04*
G04 Layer_Color=13813960*
%FSLAX25Y25*%
%MOIN*%
G70*
G04*
G04 #@! TF.SameCoordinates,0B2D2C80-7AF4-4F1A-9CF9-E7062EFAC0B4*
G04*
G04*
G04 #@! TF.FilePolarity,Positive*
G04*
G01*
G75*
G36*
X-56281Y13465D02*
X-55948Y13437D01*
X-55559Y13382D01*
X-55143Y13326D01*
X-54671Y13243D01*
X-54171Y13132D01*
X-53643Y13021D01*
X-53116Y12854D01*
X-52560Y12660D01*
X-52005Y12437D01*
X-51477Y12160D01*
X-50950Y11882D01*
X-50450Y11521D01*
X-50422Y11493D01*
X-50339Y11438D01*
X-50200Y11327D01*
X-50033Y11160D01*
X-49811Y10966D01*
X-49561Y10716D01*
X-49311Y10438D01*
X-49006Y10105D01*
X-48700Y9744D01*
X-48395Y9327D01*
X-48089Y8883D01*
X-47811Y8383D01*
X-47506Y7855D01*
X-47256Y7272D01*
X-47006Y6661D01*
X-46784Y6022D01*
X-50116Y5245D01*
Y5273D01*
X-50172Y5356D01*
X-50200Y5523D01*
X-50283Y5717D01*
X-50366Y5939D01*
X-50505Y6189D01*
X-50783Y6800D01*
X-51144Y7467D01*
X-51616Y8161D01*
X-52116Y8800D01*
X-52421Y9077D01*
X-52727Y9327D01*
X-52754Y9355D01*
X-52810Y9383D01*
X-52893Y9438D01*
X-53032Y9522D01*
X-53199Y9633D01*
X-53393Y9744D01*
X-53615Y9855D01*
X-53893Y9966D01*
X-54199Y10077D01*
X-54504Y10188D01*
X-55226Y10410D01*
X-56059Y10549D01*
X-56503Y10605D01*
X-57253D01*
X-57476Y10577D01*
X-57725Y10549D01*
X-58031Y10521D01*
X-58364Y10493D01*
X-58697Y10438D01*
X-59503Y10244D01*
X-60336Y9994D01*
X-60752Y9827D01*
X-61169Y9633D01*
X-61558Y9410D01*
X-61946Y9161D01*
X-61974Y9133D01*
X-62030Y9105D01*
X-62141Y9022D01*
X-62280Y8911D01*
X-62419Y8772D01*
X-62613Y8577D01*
X-62807Y8383D01*
X-63029Y8161D01*
X-63252Y7883D01*
X-63502Y7605D01*
X-63946Y6967D01*
X-64362Y6217D01*
X-64723Y5356D01*
Y5328D01*
X-64751Y5245D01*
X-64807Y5106D01*
X-64834Y4939D01*
X-64890Y4717D01*
X-64973Y4467D01*
X-65029Y4162D01*
X-65112Y3856D01*
X-65196Y3495D01*
X-65251Y3107D01*
X-65390Y2273D01*
X-65473Y1385D01*
X-65501Y441D01*
Y413D01*
Y302D01*
Y135D01*
X-65473Y-115D01*
Y-392D01*
X-65445Y-726D01*
X-65418Y-1087D01*
X-65390Y-1503D01*
X-65334Y-1947D01*
X-65279Y-2392D01*
X-65112Y-3364D01*
X-64862Y-4336D01*
X-64557Y-5280D01*
Y-5308D01*
X-64501Y-5391D01*
X-64446Y-5502D01*
X-64390Y-5669D01*
X-64279Y-5891D01*
X-64140Y-6113D01*
X-63835Y-6641D01*
X-63418Y-7252D01*
X-62918Y-7835D01*
X-62307Y-8418D01*
X-61974Y-8668D01*
X-61613Y-8918D01*
X-61585D01*
X-61530Y-8973D01*
X-61419Y-9029D01*
X-61252Y-9112D01*
X-61058Y-9195D01*
X-60836Y-9307D01*
X-60586Y-9390D01*
X-60308Y-9501D01*
X-59669Y-9723D01*
X-58920Y-9917D01*
X-58114Y-10056D01*
X-57698Y-10084D01*
X-57253Y-10112D01*
X-56976D01*
X-56781Y-10084D01*
X-56531Y-10056D01*
X-56254Y-10029D01*
X-55920Y-9973D01*
X-55587Y-9917D01*
X-54809Y-9723D01*
X-54421Y-9584D01*
X-54004Y-9418D01*
X-53588Y-9223D01*
X-53199Y-9001D01*
X-52810Y-8751D01*
X-52421Y-8473D01*
X-52394Y-8446D01*
X-52338Y-8390D01*
X-52227Y-8307D01*
X-52088Y-8168D01*
X-51949Y-8001D01*
X-51755Y-7779D01*
X-51560Y-7529D01*
X-51338Y-7252D01*
X-51116Y-6918D01*
X-50894Y-6557D01*
X-50672Y-6169D01*
X-50450Y-5724D01*
X-50255Y-5252D01*
X-50061Y-4724D01*
X-49867Y-4169D01*
X-49728Y-3586D01*
X-46340Y-4447D01*
Y-4502D01*
X-46395Y-4641D01*
X-46451Y-4836D01*
X-46562Y-5141D01*
X-46673Y-5474D01*
X-46839Y-5891D01*
X-47006Y-6335D01*
X-47228Y-6807D01*
X-47478Y-7335D01*
X-47756Y-7835D01*
X-48061Y-8390D01*
X-48422Y-8918D01*
X-48811Y-9418D01*
X-49228Y-9917D01*
X-49700Y-10390D01*
X-50200Y-10834D01*
X-50227Y-10862D01*
X-50339Y-10917D01*
X-50477Y-11028D01*
X-50700Y-11167D01*
X-50950Y-11334D01*
X-51283Y-11528D01*
X-51644Y-11723D01*
X-52088Y-11917D01*
X-52560Y-12111D01*
X-53060Y-12306D01*
X-53615Y-12500D01*
X-54226Y-12667D01*
X-54865Y-12806D01*
X-55532Y-12917D01*
X-56226Y-12972D01*
X-56976Y-13000D01*
X-57364D01*
X-57670Y-12972D01*
X-58003Y-12945D01*
X-58420Y-12917D01*
X-58864Y-12861D01*
X-59364Y-12778D01*
X-59891Y-12695D01*
X-60447Y-12584D01*
X-61002Y-12445D01*
X-61558Y-12306D01*
X-62141Y-12111D01*
X-62696Y-11889D01*
X-63224Y-11639D01*
X-63724Y-11334D01*
X-63752Y-11306D01*
X-63835Y-11250D01*
X-63974Y-11167D01*
X-64140Y-11028D01*
X-64362Y-10834D01*
X-64612Y-10639D01*
X-64890Y-10390D01*
X-65196Y-10084D01*
X-65501Y-9751D01*
X-65834Y-9390D01*
X-66140Y-9001D01*
X-66473Y-8557D01*
X-66806Y-8085D01*
X-67112Y-7585D01*
X-67389Y-7029D01*
X-67667Y-6446D01*
X-67695Y-6419D01*
X-67723Y-6307D01*
X-67778Y-6113D01*
X-67861Y-5891D01*
X-67972Y-5585D01*
X-68084Y-5252D01*
X-68195Y-4836D01*
X-68334Y-4391D01*
X-68445Y-3891D01*
X-68584Y-3364D01*
X-68695Y-2808D01*
X-68778Y-2197D01*
X-68945Y-920D01*
X-68972Y-254D01*
X-69000Y413D01*
Y468D01*
Y580D01*
Y802D01*
X-68972Y1079D01*
X-68945Y1440D01*
X-68917Y1857D01*
X-68861Y2301D01*
X-68806Y2801D01*
X-68722Y3329D01*
X-68639Y3884D01*
X-68361Y5078D01*
X-68167Y5661D01*
X-67972Y6245D01*
X-67750Y6855D01*
X-67473Y7411D01*
X-67445Y7439D01*
X-67389Y7550D01*
X-67306Y7689D01*
X-67195Y7911D01*
X-67028Y8161D01*
X-66834Y8438D01*
X-66612Y8744D01*
X-66362Y9105D01*
X-66056Y9438D01*
X-65751Y9827D01*
X-65390Y10188D01*
X-65001Y10577D01*
X-64585Y10938D01*
X-64140Y11299D01*
X-63640Y11632D01*
X-63140Y11937D01*
X-63113Y11965D01*
X-63002Y11993D01*
X-62863Y12076D01*
X-62641Y12187D01*
X-62391Y12298D01*
X-62058Y12437D01*
X-61696Y12576D01*
X-61308Y12715D01*
X-60863Y12854D01*
X-60364Y12993D01*
X-59864Y13132D01*
X-59308Y13243D01*
X-58170Y13437D01*
X-57559Y13465D01*
X-56920Y13493D01*
X-56559D01*
X-56281Y13465D01*
D02*
G37*
G36*
X53605Y-1753D02*
Y-1809D01*
Y-1920D01*
Y-2114D01*
Y-2392D01*
X53577Y-2725D01*
X53549Y-3086D01*
X53521Y-3503D01*
X53493Y-3975D01*
X53382Y-4947D01*
X53243Y-5974D01*
X53021Y-6974D01*
X52882Y-7446D01*
X52716Y-7890D01*
Y-7918D01*
X52688Y-8001D01*
X52633Y-8112D01*
X52549Y-8279D01*
X52438Y-8473D01*
X52327Y-8696D01*
X51994Y-9195D01*
X51799Y-9501D01*
X51577Y-9779D01*
X51300Y-10112D01*
X51022Y-10417D01*
X50689Y-10723D01*
X50355Y-11028D01*
X49967Y-11306D01*
X49550Y-11584D01*
X49522Y-11611D01*
X49439Y-11639D01*
X49328Y-11723D01*
X49134Y-11806D01*
X48911Y-11917D01*
X48634Y-12028D01*
X48328Y-12167D01*
X47940Y-12278D01*
X47551Y-12417D01*
X47106Y-12556D01*
X46606Y-12667D01*
X46079Y-12778D01*
X45496Y-12861D01*
X44885Y-12945D01*
X44246Y-12972D01*
X43580Y-13000D01*
X43219D01*
X42969Y-12972D01*
X42663D01*
X42330Y-12945D01*
X41913Y-12889D01*
X41497Y-12833D01*
X40553Y-12695D01*
X39553Y-12472D01*
X38581Y-12167D01*
X38109Y-12000D01*
X37665Y-11778D01*
X37637Y-11750D01*
X37554Y-11723D01*
X37442Y-11639D01*
X37304Y-11556D01*
X37109Y-11417D01*
X36887Y-11250D01*
X36665Y-11084D01*
X36415Y-10862D01*
X35860Y-10362D01*
X35332Y-9751D01*
X34832Y-9029D01*
X34610Y-8612D01*
X34416Y-8196D01*
Y-8168D01*
X34388Y-8085D01*
X34332Y-7946D01*
X34277Y-7751D01*
X34193Y-7529D01*
X34110Y-7224D01*
X34027Y-6891D01*
X33943Y-6502D01*
X33832Y-6058D01*
X33749Y-5585D01*
X33666Y-5058D01*
X33610Y-4475D01*
X33527Y-3864D01*
X33499Y-3197D01*
X33443Y-2503D01*
Y-1753D01*
Y13048D01*
X36832D01*
Y-1753D01*
Y-1781D01*
Y-1892D01*
Y-2059D01*
Y-2308D01*
X36859Y-2586D01*
Y-2892D01*
X36887Y-3253D01*
X36915Y-3614D01*
X36970Y-4419D01*
X37081Y-5224D01*
X37248Y-6002D01*
X37331Y-6363D01*
X37442Y-6668D01*
Y-6696D01*
X37470Y-6724D01*
X37498Y-6807D01*
X37554Y-6918D01*
X37720Y-7224D01*
X37942Y-7557D01*
X38220Y-7974D01*
X38581Y-8362D01*
X39025Y-8751D01*
X39553Y-9112D01*
X39581D01*
X39636Y-9140D01*
X39720Y-9195D01*
X39831Y-9251D01*
X39970Y-9307D01*
X40164Y-9362D01*
X40358Y-9445D01*
X40580Y-9529D01*
X41136Y-9668D01*
X41774Y-9806D01*
X42497Y-9917D01*
X43274Y-9945D01*
X43635D01*
X43885Y-9917D01*
X44190Y-9890D01*
X44552Y-9862D01*
X44940Y-9806D01*
X45357Y-9723D01*
X46218Y-9529D01*
X46662Y-9390D01*
X47106Y-9223D01*
X47523Y-9029D01*
X47912Y-8807D01*
X48273Y-8557D01*
X48606Y-8251D01*
X48634Y-8224D01*
X48689Y-8168D01*
X48745Y-8057D01*
X48856Y-7918D01*
X48967Y-7724D01*
X49106Y-7474D01*
X49272Y-7168D01*
X49411Y-6807D01*
X49550Y-6391D01*
X49717Y-5919D01*
X49856Y-5391D01*
X49967Y-4808D01*
X50078Y-4141D01*
X50161Y-3419D01*
X50189Y-2614D01*
X50217Y-1753D01*
Y13048D01*
X53605D01*
Y-1753D01*
D02*
G37*
G36*
X-21958D02*
Y-1809D01*
Y-1920D01*
Y-2114D01*
Y-2392D01*
X-21985Y-2725D01*
X-22013Y-3086D01*
X-22041Y-3503D01*
X-22069Y-3975D01*
X-22180Y-4947D01*
X-22319Y-5974D01*
X-22541Y-6974D01*
X-22680Y-7446D01*
X-22846Y-7890D01*
Y-7918D01*
X-22874Y-8001D01*
X-22930Y-8112D01*
X-23013Y-8279D01*
X-23124Y-8473D01*
X-23235Y-8696D01*
X-23568Y-9195D01*
X-23763Y-9501D01*
X-23985Y-9779D01*
X-24262Y-10112D01*
X-24540Y-10417D01*
X-24873Y-10723D01*
X-25207Y-11028D01*
X-25596Y-11306D01*
X-26012Y-11584D01*
X-26040Y-11611D01*
X-26123Y-11639D01*
X-26234Y-11723D01*
X-26429Y-11806D01*
X-26651Y-11917D01*
X-26928Y-12028D01*
X-27234Y-12167D01*
X-27623Y-12278D01*
X-28012Y-12417D01*
X-28456Y-12556D01*
X-28956Y-12667D01*
X-29483Y-12778D01*
X-30066Y-12861D01*
X-30677Y-12945D01*
X-31316Y-12972D01*
X-31983Y-13000D01*
X-32344D01*
X-32594Y-12972D01*
X-32899D01*
X-33232Y-12945D01*
X-33649Y-12889D01*
X-34065Y-12833D01*
X-35010Y-12695D01*
X-36009Y-12472D01*
X-36981Y-12167D01*
X-37453Y-12000D01*
X-37898Y-11778D01*
X-37925Y-11750D01*
X-38009Y-11723D01*
X-38120Y-11639D01*
X-38259Y-11556D01*
X-38453Y-11417D01*
X-38675Y-11250D01*
X-38897Y-11084D01*
X-39147Y-10862D01*
X-39703Y-10362D01*
X-40230Y-9751D01*
X-40730Y-9029D01*
X-40952Y-8612D01*
X-41147Y-8196D01*
Y-8168D01*
X-41175Y-8085D01*
X-41230Y-7946D01*
X-41285Y-7751D01*
X-41369Y-7529D01*
X-41452Y-7224D01*
X-41535Y-6891D01*
X-41619Y-6502D01*
X-41730Y-6058D01*
X-41813Y-5585D01*
X-41897Y-5058D01*
X-41952Y-4475D01*
X-42035Y-3864D01*
X-42063Y-3197D01*
X-42119Y-2503D01*
Y-1753D01*
Y13048D01*
X-38731D01*
Y-1753D01*
Y-1781D01*
Y-1892D01*
Y-2059D01*
Y-2308D01*
X-38703Y-2586D01*
Y-2892D01*
X-38675Y-3253D01*
X-38647Y-3614D01*
X-38592Y-4419D01*
X-38481Y-5224D01*
X-38314Y-6002D01*
X-38231Y-6363D01*
X-38120Y-6668D01*
Y-6696D01*
X-38092Y-6724D01*
X-38064Y-6807D01*
X-38009Y-6918D01*
X-37842Y-7224D01*
X-37620Y-7557D01*
X-37342Y-7974D01*
X-36981Y-8362D01*
X-36537Y-8751D01*
X-36009Y-9112D01*
X-35982D01*
X-35926Y-9140D01*
X-35843Y-9195D01*
X-35732Y-9251D01*
X-35593Y-9307D01*
X-35398Y-9362D01*
X-35204Y-9445D01*
X-34982Y-9529D01*
X-34426Y-9668D01*
X-33788Y-9806D01*
X-33066Y-9917D01*
X-32288Y-9945D01*
X-31927D01*
X-31677Y-9917D01*
X-31372Y-9890D01*
X-31011Y-9862D01*
X-30622Y-9806D01*
X-30205Y-9723D01*
X-29344Y-9529D01*
X-28900Y-9390D01*
X-28456Y-9223D01*
X-28039Y-9029D01*
X-27650Y-8807D01*
X-27290Y-8557D01*
X-26956Y-8251D01*
X-26928Y-8224D01*
X-26873Y-8168D01*
X-26817Y-8057D01*
X-26706Y-7918D01*
X-26595Y-7724D01*
X-26456Y-7474D01*
X-26290Y-7168D01*
X-26151Y-6807D01*
X-26012Y-6391D01*
X-25845Y-5919D01*
X-25707Y-5391D01*
X-25596Y-4808D01*
X-25484Y-4141D01*
X-25401Y-3419D01*
X-25373Y-2614D01*
X-25346Y-1753D01*
Y13048D01*
X-21958D01*
Y-1753D01*
D02*
G37*
G36*
X77598Y10021D02*
X69156D01*
Y-12584D01*
X65768D01*
Y10021D01*
X57326D01*
Y13048D01*
X77598D01*
Y10021D01*
D02*
G37*
G36*
X2036D02*
X-6406D01*
Y-12584D01*
X-9794D01*
Y10021D01*
X-18236D01*
Y13048D01*
X2036D01*
Y10021D01*
D02*
G37*
G36*
X17365Y13465D02*
X17698Y13437D01*
X18059Y13409D01*
X18448Y13354D01*
X18892Y13270D01*
X19392Y13187D01*
X19892Y13076D01*
X20419Y12937D01*
X20975Y12771D01*
X21530Y12576D01*
X22086Y12354D01*
X22613Y12104D01*
X23169Y11799D01*
X23196Y11771D01*
X23307Y11715D01*
X23446Y11632D01*
X23641Y11493D01*
X23891Y11327D01*
X24141Y11104D01*
X24446Y10854D01*
X24779Y10577D01*
X25140Y10244D01*
X25501Y9883D01*
X25862Y9494D01*
X26223Y9077D01*
X26557Y8633D01*
X26918Y8133D01*
X27223Y7605D01*
X27529Y7050D01*
X27556Y7022D01*
X27584Y6911D01*
X27667Y6745D01*
X27751Y6522D01*
X27889Y6245D01*
X28001Y5884D01*
X28139Y5495D01*
X28278Y5051D01*
X28417Y4578D01*
X28556Y4051D01*
X28695Y3468D01*
X28806Y2884D01*
X28889Y2246D01*
X28973Y1579D01*
X29000Y913D01*
X29028Y191D01*
Y135D01*
Y24D01*
Y-198D01*
X29000Y-476D01*
X28973Y-809D01*
X28945Y-1198D01*
X28889Y-1642D01*
X28834Y-2142D01*
X28750Y-2670D01*
X28639Y-3225D01*
X28528Y-3808D01*
X28362Y-4391D01*
X28167Y-5002D01*
X27973Y-5585D01*
X27723Y-6196D01*
X27445Y-6780D01*
X27417Y-6807D01*
X27362Y-6918D01*
X27279Y-7085D01*
X27167Y-7279D01*
X27001Y-7529D01*
X26807Y-7835D01*
X26557Y-8168D01*
X26307Y-8529D01*
X26001Y-8890D01*
X25668Y-9279D01*
X25279Y-9668D01*
X24890Y-10056D01*
X24474Y-10417D01*
X24002Y-10778D01*
X23502Y-11139D01*
X22974Y-11445D01*
X22946Y-11473D01*
X22835Y-11500D01*
X22696Y-11584D01*
X22474Y-11695D01*
X22197Y-11806D01*
X21891Y-11945D01*
X21530Y-12084D01*
X21114Y-12222D01*
X20669Y-12361D01*
X20197Y-12500D01*
X19670Y-12639D01*
X19142Y-12750D01*
X17976Y-12945D01*
X17365Y-12972D01*
X16754Y-13000D01*
X16393D01*
X16143Y-12972D01*
X15837Y-12945D01*
X15449Y-12917D01*
X15060Y-12861D01*
X14588Y-12778D01*
X14116Y-12695D01*
X13588Y-12584D01*
X13060Y-12445D01*
X12505Y-12278D01*
X11950Y-12084D01*
X11394Y-11834D01*
X10839Y-11584D01*
X10283Y-11278D01*
X10256Y-11250D01*
X10172Y-11195D01*
X10006Y-11084D01*
X9811Y-10945D01*
X9589Y-10778D01*
X9311Y-10556D01*
X9006Y-10306D01*
X8673Y-10029D01*
X8312Y-9695D01*
X7978Y-9334D01*
X7617Y-8946D01*
X7256Y-8529D01*
X6895Y-8057D01*
X6562Y-7585D01*
X6257Y-7057D01*
X5951Y-6502D01*
X5923Y-6474D01*
X5896Y-6363D01*
X5812Y-6196D01*
X5729Y-5974D01*
X5618Y-5697D01*
X5507Y-5363D01*
X5368Y-5002D01*
X5229Y-4558D01*
X5090Y-4114D01*
X4952Y-3614D01*
X4840Y-3086D01*
X4729Y-2531D01*
X4563Y-1364D01*
X4535Y-726D01*
X4507Y-115D01*
Y-87D01*
Y-31D01*
Y52D01*
Y163D01*
X4535Y330D01*
Y496D01*
X4563Y941D01*
X4618Y1468D01*
X4702Y2107D01*
X4785Y2773D01*
X4924Y3523D01*
X5118Y4329D01*
X5340Y5134D01*
X5618Y5967D01*
X5951Y6800D01*
X6340Y7633D01*
X6784Y8411D01*
X7312Y9188D01*
X7923Y9883D01*
X7951Y9910D01*
X8089Y10049D01*
X8284Y10216D01*
X8534Y10438D01*
X8895Y10716D01*
X9284Y11021D01*
X9756Y11354D01*
X10311Y11688D01*
X10922Y12021D01*
X11588Y12354D01*
X12311Y12660D01*
X13116Y12937D01*
X13949Y13159D01*
X14838Y13326D01*
X15782Y13465D01*
X16781Y13493D01*
X17115D01*
X17365Y13465D01*
D02*
G37*
%LPC*%
G36*
X17254Y10577D02*
X16615D01*
X16448Y10549D01*
X16171D01*
X15865Y10493D01*
X15504Y10438D01*
X15115Y10355D01*
X14671Y10271D01*
X14199Y10132D01*
X13699Y9966D01*
X13171Y9771D01*
X12672Y9522D01*
X12144Y9244D01*
X11616Y8911D01*
X11089Y8522D01*
X10589Y8077D01*
X10561Y8050D01*
X10478Y7966D01*
X10339Y7800D01*
X10200Y7605D01*
X9978Y7328D01*
X9783Y6994D01*
X9534Y6578D01*
X9311Y6134D01*
X9061Y5578D01*
X8811Y4967D01*
X8617Y4301D01*
X8423Y3551D01*
X8256Y2746D01*
X8117Y1857D01*
X8034Y885D01*
X8006Y-170D01*
Y-226D01*
Y-365D01*
X8034Y-615D01*
Y-948D01*
X8089Y-1337D01*
X8145Y-1781D01*
X8201Y-2281D01*
X8312Y-2808D01*
X8450Y-3392D01*
X8617Y-4002D01*
X8811Y-4586D01*
X9061Y-5197D01*
X9339Y-5808D01*
X9672Y-6391D01*
X10033Y-6946D01*
X10478Y-7474D01*
X10505Y-7502D01*
X10589Y-7585D01*
X10728Y-7724D01*
X10922Y-7890D01*
X11172Y-8085D01*
X11478Y-8307D01*
X11811Y-8557D01*
X12200Y-8779D01*
X12616Y-9029D01*
X13116Y-9279D01*
X13616Y-9501D01*
X14171Y-9695D01*
X14754Y-9862D01*
X15393Y-10001D01*
X16032Y-10084D01*
X16726Y-10112D01*
X16893D01*
X17087Y-10084D01*
X17365Y-10056D01*
X17698Y-10029D01*
X18059Y-9973D01*
X18503Y-9890D01*
X18948Y-9779D01*
X19447Y-9640D01*
X19947Y-9473D01*
X20475Y-9251D01*
X21003Y-8973D01*
X21530Y-8668D01*
X22058Y-8335D01*
X22558Y-7918D01*
X23030Y-7446D01*
X23058Y-7418D01*
X23141Y-7307D01*
X23252Y-7168D01*
X23419Y-6946D01*
X23613Y-6668D01*
X23835Y-6335D01*
X24057Y-5946D01*
X24279Y-5474D01*
X24502Y-4975D01*
X24751Y-4391D01*
X24946Y-3780D01*
X25140Y-3086D01*
X25307Y-2336D01*
X25418Y-1559D01*
X25501Y-698D01*
X25529Y191D01*
Y219D01*
Y330D01*
Y496D01*
X25501Y718D01*
Y996D01*
X25473Y1302D01*
X25446Y1663D01*
X25390Y2051D01*
X25279Y2912D01*
X25085Y3829D01*
X24807Y4745D01*
X24446Y5661D01*
Y5689D01*
X24390Y5773D01*
X24335Y5884D01*
X24252Y6050D01*
X24141Y6245D01*
X24002Y6467D01*
X23668Y6994D01*
X23224Y7578D01*
X22696Y8161D01*
X22086Y8744D01*
X21364Y9272D01*
X21336Y9299D01*
X21280Y9327D01*
X21169Y9383D01*
X21003Y9466D01*
X20808Y9577D01*
X20586Y9688D01*
X20336Y9799D01*
X20031Y9938D01*
X19697Y10049D01*
X19364Y10160D01*
X18587Y10382D01*
X17726Y10521D01*
X17254Y10577D01*
D02*
G37*
%LPD*%
M02*
