G04*
G04 #@! TF.GenerationSoftware,Altium Limited,Altium Designer,20.2.6 (244)*
G04*
G04 Layer_Color=8150272*
%FSLAX25Y25*%
%MOIN*%
G70*
G04*
G04 #@! TF.SameCoordinates,0B2D2C80-7AF4-4F1A-9CF9-E7062EFAC0B4*
G04*
G04*
G04 #@! TF.FilePolarity,Negative*
G04*
G01*
G75*
%ADD10C,0.10000*%
%ADD23C,0.10800*%
%ADD24C,0.13300*%
%ADD25C,0.07000*%
%ADD26C,0.11800*%
%ADD27C,0.07800*%
%ADD28P,0.11031X4X90.0*%
%ADD29C,0.03800*%
%ADD30C,0.28800*%
%ADD31C,0.06800*%
%ADD32C,0.09461*%
%ADD33R,0.09461X0.09461*%
%ADD34C,0.16548*%
%ADD35C,0.12611*%
%ADD36C,0.08300*%
%ADD37C,0.10250*%
%ADD38R,0.10250X0.10250*%
%ADD39R,0.08300X0.08300*%
%ADD40C,0.07100*%
%ADD41C,0.06706*%
%ADD42C,0.00800*%
%ADD43C,0.08500*%
%ADD44C,0.08674*%
%ADD45C,0.19800*%
%ADD46R,0.07000X0.07000*%
%ADD47C,0.05800*%
D10*
X0Y250000D02*
G03*
X-250000Y0I0J-250000D01*
G01*
X250000D02*
G03*
X0Y250000I-250000J0D01*
G01*
Y-250000D02*
G03*
X250000Y0I0J250000D01*
G01*
X-250000D02*
G03*
X0Y-250000I250000J0D01*
G01*
D23*
X160200Y11050D02*
D03*
X160200Y-11450D02*
D03*
X157700Y-200D02*
D03*
X175200Y-27700D02*
D03*
X177700Y27300D02*
D03*
D24*
X187700Y-17700D02*
D03*
X187700Y17300D02*
D03*
X10200Y-237850D02*
D03*
X37800D02*
D03*
Y-218150D02*
D03*
X10200D02*
D03*
X-13800Y-196350D02*
D03*
X13800D02*
D03*
X13800Y-176650D02*
D03*
X-13800D02*
D03*
X-37800Y-237850D02*
D03*
X-10200D02*
D03*
Y-218150D02*
D03*
X-37800D02*
D03*
D25*
X212200Y-200D02*
D03*
X225200Y-22700D02*
D03*
X225200Y22300D02*
D03*
X-15000Y163500D02*
D03*
X-15000Y173500D02*
D03*
X-5000Y163500D02*
D03*
X-5000Y173500D02*
D03*
X5000Y163500D02*
D03*
X5000Y173500D02*
D03*
X15000Y163500D02*
D03*
D26*
X222700Y32300D02*
D03*
D27*
X-152500Y-85000D02*
D03*
X-87500Y-152500D02*
D03*
D28*
X-159571Y-92071D02*
D03*
X-94571Y-159571D02*
D03*
D29*
X95583Y220058D02*
D03*
X80451Y204926D02*
D03*
X97903Y216587D02*
D03*
X78132Y208398D02*
D03*
X98717Y212492D02*
D03*
X77317Y212492D02*
D03*
X97903Y208398D02*
D03*
X78132Y216587D02*
D03*
X95583Y204926D02*
D03*
X80451Y220058D02*
D03*
X92112Y202607D02*
D03*
X83922Y222378D02*
D03*
X88017Y201792D02*
D03*
X88017Y223192D02*
D03*
X92112Y222378D02*
D03*
X83922Y202607D02*
D03*
X-88017Y223192D02*
D03*
X-88017Y201792D02*
D03*
X-83922Y222378D02*
D03*
X-92112Y202607D02*
D03*
X-80451Y220058D02*
D03*
X-95583Y204926D02*
D03*
X-78132Y216587D02*
D03*
X-97903Y208398D02*
D03*
X-77317Y212492D02*
D03*
X-98717Y212492D02*
D03*
X-78132Y208398D02*
D03*
X-97903Y216587D02*
D03*
X-80451Y204926D02*
D03*
X-95583Y220058D02*
D03*
X-92112Y222378D02*
D03*
X-83922Y202607D02*
D03*
X-95583Y-220058D02*
D03*
X-80451Y-204926D02*
D03*
X-97903Y-216587D02*
D03*
X-78132Y-208398D02*
D03*
X-98717Y-212492D02*
D03*
X-77317D02*
D03*
X-97903Y-208398D02*
D03*
X-78132Y-216587D02*
D03*
X-95583Y-204926D02*
D03*
X-80451Y-220058D02*
D03*
X-92112Y-202607D02*
D03*
X-83922Y-222378D02*
D03*
X-88017Y-201792D02*
D03*
Y-223192D02*
D03*
X-92112Y-222378D02*
D03*
X-83922Y-202607D02*
D03*
X88017Y-223192D02*
D03*
Y-201792D02*
D03*
X83922Y-222378D02*
D03*
X92112Y-202607D02*
D03*
X80451Y-220058D02*
D03*
X95583Y-204926D02*
D03*
X78132Y-216587D02*
D03*
X97903Y-208398D02*
D03*
X77317Y-212492D02*
D03*
X98717D02*
D03*
X78132Y-208398D02*
D03*
X97903Y-216587D02*
D03*
X80451Y-204926D02*
D03*
X95583Y-220058D02*
D03*
X92112Y-222378D02*
D03*
X83922Y-202607D02*
D03*
X-220058Y95583D02*
D03*
X-204926Y80451D02*
D03*
X-216587Y97903D02*
D03*
X-208398Y78132D02*
D03*
X-212492Y98717D02*
D03*
Y77317D02*
D03*
X-208398Y97903D02*
D03*
X-216587Y78132D02*
D03*
X-204926Y95583D02*
D03*
X-220058Y80451D02*
D03*
X-202607Y92112D02*
D03*
X-222378Y83922D02*
D03*
X-201792Y88017D02*
D03*
X-223192D02*
D03*
X-222378Y92112D02*
D03*
X-202607Y83922D02*
D03*
X223152Y88944D02*
D03*
X201833Y87091D02*
D03*
X222695Y84794D02*
D03*
X202289Y91241D02*
D03*
X220685Y81134D02*
D03*
X204300Y94900D02*
D03*
X217427Y78523D02*
D03*
X207557Y97511D02*
D03*
X213419Y77357D02*
D03*
X211566Y98677D02*
D03*
X209269Y77814D02*
D03*
X215716Y98220D02*
D03*
X205610Y79825D02*
D03*
X219375Y96210D02*
D03*
X221986Y92952D02*
D03*
X202998Y83082D02*
D03*
X220058Y-95583D02*
D03*
X204926Y-80451D02*
D03*
X216587Y-97903D02*
D03*
X208398Y-78132D02*
D03*
X212492Y-98717D02*
D03*
X212492Y-77317D02*
D03*
X208398Y-97903D02*
D03*
X216587Y-78132D02*
D03*
X204926Y-95583D02*
D03*
X220058Y-80451D02*
D03*
X202607Y-92112D02*
D03*
X222378Y-83922D02*
D03*
X201792Y-88017D02*
D03*
X223192Y-88017D02*
D03*
X222378Y-92112D02*
D03*
X202607Y-83922D02*
D03*
X-223192Y-88017D02*
D03*
X-201792D02*
D03*
X-222378Y-83922D02*
D03*
X-202607Y-92112D02*
D03*
X-220058Y-80451D02*
D03*
X-204926Y-95583D02*
D03*
X-216587Y-78132D02*
D03*
X-208398Y-97903D02*
D03*
X-212492Y-77317D02*
D03*
Y-98717D02*
D03*
X-208398Y-78132D02*
D03*
X-216587Y-97903D02*
D03*
X-204926Y-80451D02*
D03*
X-220058Y-95583D02*
D03*
X-222378Y-92112D02*
D03*
X-202607Y-83922D02*
D03*
D30*
X88017Y212492D02*
D03*
X-88017D02*
D03*
Y-212492D02*
D03*
X88017D02*
D03*
X-212492Y88017D02*
D03*
X212492D02*
D03*
Y-88017D02*
D03*
X-212492D02*
D03*
D31*
X0Y-147000D02*
D03*
X55000Y-195000D02*
D03*
X-55000D02*
D03*
D32*
X-24390Y217500D02*
D03*
X11220Y217500D02*
D03*
D33*
X-10610D02*
D03*
X25000D02*
D03*
D34*
X143500Y159661D02*
D03*
X143500Y187500D02*
D03*
X115661Y187500D02*
D03*
X158161Y146000D02*
D03*
X186000Y146000D02*
D03*
X186000Y118161D02*
D03*
D35*
X129581Y173581D02*
D03*
X113216Y-188284D02*
D03*
X141500Y-160000D02*
D03*
X160500Y-141000D02*
D03*
X188784Y-112716D02*
D03*
X-144735Y-111899D02*
D03*
X-162413Y-129577D02*
D03*
X-180090Y-147254D02*
D03*
X-148354Y-178990D02*
D03*
X-130677Y-161313D02*
D03*
X-112999Y-143635D02*
D03*
X172081Y132081D02*
D03*
D36*
X-175500Y-0D02*
D03*
D37*
X-175500Y-15000D02*
D03*
D38*
X-175500Y15000D02*
D03*
D39*
X-195500Y0D02*
D03*
D40*
X-230500Y-15000D02*
D03*
X-210500Y15000D02*
D03*
D41*
X113216Y-160000D02*
D03*
X120287Y-152929D02*
D03*
X160500Y-112716D02*
D03*
X167571Y-105645D02*
D03*
D42*
X-115978Y-114878D02*
D03*
D43*
X-174002Y134182D02*
D03*
X-142182Y166001D02*
D03*
D44*
X-147555Y107735D02*
D03*
X-115735Y139555D02*
D03*
X-151090Y174910D02*
D03*
X-182910Y143090D02*
D03*
X-165232Y125412D02*
D03*
X-133412Y157232D02*
D03*
D45*
X-150394Y122434D02*
D03*
D46*
X15000Y173500D02*
D03*
D47*
X117820Y-54940D02*
D03*
X122160Y-44463D02*
D03*
X129505Y-11330D02*
D03*
X130000Y0D02*
D03*
X125570Y-33647D02*
D03*
X128025Y-22574D02*
D03*
X112583Y-65000D02*
D03*
X129505Y11330D02*
D03*
X91924Y-91924D02*
D03*
X83562Y-99586D02*
D03*
X99586Y-83562D02*
D03*
X-44463Y-122160D02*
D03*
X-55386Y-118075D02*
D03*
X-65000Y-112583D02*
D03*
X-129505Y-11330D02*
D03*
X-128025Y-22574D02*
D03*
X-125570Y-33647D02*
D03*
X-122160Y-44463D02*
D03*
X-117820Y-54940D02*
D03*
X-112583Y-65000D02*
D03*
X-106490Y-74565D02*
D03*
X-99586Y-83562D02*
D03*
X-92267Y-92572D02*
D03*
X-83562Y-99586D02*
D03*
X-74565Y-106490D02*
D03*
X-33647Y-125570D02*
D03*
X-22574Y-128025D02*
D03*
X-11330Y-129505D02*
D03*
X0Y-130000D02*
D03*
X11330Y-129505D02*
D03*
X22574Y-128025D02*
D03*
X33647Y-125570D02*
D03*
X44463Y-122160D02*
D03*
X54940Y-117820D02*
D03*
X65000Y-112583D02*
D03*
X74565Y-106490D02*
D03*
X106490Y-74565D02*
D03*
X128025Y22574D02*
D03*
X125570Y33647D02*
D03*
X122160Y44463D02*
D03*
X117820Y54940D02*
D03*
X112583Y65000D02*
D03*
X106490Y74565D02*
D03*
X99586Y83562D02*
D03*
X91924Y91924D02*
D03*
X83562Y99586D02*
D03*
X74565Y106490D02*
D03*
X65000Y112583D02*
D03*
X54940Y117820D02*
D03*
X44463Y122160D02*
D03*
X33647Y125570D02*
D03*
X22574Y128025D02*
D03*
X11330Y129505D02*
D03*
X0Y130000D02*
D03*
X-11330Y129505D02*
D03*
X-22574Y128025D02*
D03*
X-33647Y125570D02*
D03*
X-44463Y122160D02*
D03*
X-54940Y117820D02*
D03*
X-65000Y112583D02*
D03*
X-74565Y106490D02*
D03*
X-83562Y99586D02*
D03*
X-130000Y0D02*
D03*
X-91924Y91924D02*
D03*
X-99317Y83316D02*
D03*
X-106490Y74565D02*
D03*
X-112583Y65000D02*
D03*
X-117820Y54940D02*
D03*
X-122160Y44463D02*
D03*
X-125570Y33647D02*
D03*
X-128025Y22574D02*
D03*
X-129505Y11330D02*
D03*
M02*
